<?xml version="1.0" encoding="UTF-8" standalone="no"?>
<!DOCTYPE svg PUBLIC "-//W3C//DTD SVG 1.1//EN"
 "http://www.w3.org/Graphics/SVG/1.1/DTD/svg11.dtd">
<!-- Generated by graphviz version 2.40.1 (20161225.0304)
 -->
<!-- Pages: 1 -->
<svg width="1063pt" height="885pt"
 viewBox="0.00 0.00 1063.36 884.93" xmlns="http://www.w3.org/2000/svg" xmlns:xlink="http://www.w3.org/1999/xlink">
<g id="graph0" class="graph" transform="scale(1 1) rotate(0) translate(4 880.9259)">
<polygon fill="#ffffff" stroke="transparent" points="-4,4 -4,-880.9259 1059.3604,-880.9259 1059.3604,4 -4,4"/>
<!-- n3 -->
<g id="node1" class="node">
<title>n3</title>
<ellipse fill="none" stroke="#ff0000" cx="486.658" cy="-256.7283" rx="20.8829" ry="20.8829"/>
<text text-anchor="middle" x="486.658" y="-252.5283" font-family="Times,serif" font-size="14.00" fill="#000000">all</text>
</g>
<!-- n1 -->
<g id="node8" class="node">
<title>n1</title>
<ellipse fill="none" stroke="#00ff00" cx="528.658" cy="-107.2185" rx="67.7372" ry="67.7372"/>
<text text-anchor="middle" x="528.658" y="-103.0185" font-family="Times,serif" font-size="14.00" fill="#000000">makesense.mk</text>
</g>
<!-- n3&#45;&gt;n1 -->
<g id="edge19" class="edge">
<title>n3&#45;&gt;n1</title>
<path fill="none" stroke="#000000" d="M492.3223,-236.5647C496.3247,-222.3172 501.9613,-202.2524 507.6031,-182.1689"/>
<polygon fill="#000000" stroke="#000000" points="511.031,-182.9075 510.366,-172.3336 504.2919,-181.0143 511.031,-182.9075"/>
</g>
<!-- n5 -->
<g id="node2" class="node">
<title>n5</title>
<g id="a_node2"><a xlink:title="mkdir &#45;p assets">
<ellipse fill="none" stroke="#ff0000" cx="408.658" cy="-619.3022" rx="33.6208" ry="33.6208"/>
<text text-anchor="middle" x="408.658" y="-615.1022" font-family="Times,serif" font-size="14.00" fill="#000000">assets</text>
</a>
</g>
</g>
<!-- n10 -->
<g id="node9" class="node">
<title>n10</title>
<g id="a_node9"><a xlink:title="make &#45;C testdata/basic &#45;Bnd | ./bin/makesense &#45;&#45;type dot | dot &#45;Tpng &#45;o assets/basic.png">
<ellipse fill="none" stroke="#ff0000" cx="117.658" cy="-433.3219" rx="72.9697" ry="72.9697"/>
<text text-anchor="middle" x="117.658" y="-429.1219" font-family="Times,serif" font-size="14.00" fill="#000000">assets/basic.png</text>
</a>
</g>
</g>
<!-- n5&#45;&gt;n10 -->
<g id="edge20" class="edge">
<title>n5&#45;&gt;n10</title>
<path fill="none" stroke="#000000" d="M376.2583,-610.1199C333.0793,-596.8264 255.6228,-569.213 199.658,-528.0243 188.5232,-519.8293 177.862,-509.8646 168.1258,-499.5145"/>
<polygon fill="#000000" stroke="#000000" points="170.5316,-496.9584 161.2062,-491.9296 165.3602,-501.6762 170.5316,-496.9584"/>
</g>
<!-- n11 -->
<g id="node10" class="node">
<title>n11</title>
<g id="a_node10"><a xlink:title="make &#45;C testdata/c &#45;Bnd | ./bin/makesense &#45;&#45;type dot | dot &#45;Tpng &#45;o assets/c.png">
<ellipse fill="none" stroke="#ff0000" cx="265.658" cy="-433.3219" rx="57.3609" ry="57.3609"/>
<text text-anchor="middle" x="265.658" y="-429.1219" font-family="Times,serif" font-size="14.00" fill="#000000">assets/c.png</text>
</a>
</g>
</g>
<!-- n5&#45;&gt;n11 -->
<g id="edge22" class="edge">
<title>n5&#45;&gt;n11</title>
<path fill="none" stroke="#000000" d="M386.4859,-593.7756C371.0242,-575.7116 350.1188,-550.7549 332.658,-528.0243 323.1976,-515.7086 313.3576,-502.2201 304.225,-489.3826"/>
<polygon fill="#000000" stroke="#000000" points="306.9695,-487.2017 298.3368,-481.0594 301.2549,-491.2445 306.9695,-487.2017"/>
</g>
<!-- n12 -->
<g id="node11" class="node">
<title>n12</title>
<g id="a_node11"><a xlink:title="make &#45;Bnd | ./bin/makesense &#45;&#45;type dot | dot &#45;Tpng &#45;o assets/this.png">
<ellipse fill="none" stroke="#ff0000" cx="408.658" cy="-433.3219" rx="67.1903" ry="67.1903"/>
<text text-anchor="middle" x="408.658" y="-429.1219" font-family="Times,serif" font-size="14.00" fill="#000000">assets/this.png</text>
</a>
</g>
</g>
<!-- n5&#45;&gt;n12 -->
<g id="edge24" class="edge">
<title>n5&#45;&gt;n12</title>
<path fill="none" stroke="#000000" d="M408.658,-585.6225C408.658,-564.7379 408.658,-537.0031 408.658,-510.9282"/>
<polygon fill="#000000" stroke="#000000" points="412.1581,-510.652 408.658,-500.652 405.1581,-510.652 412.1581,-510.652"/>
</g>
<!-- n4 -->
<g id="node14" class="node">
<title>n4</title>
<g id="a_node14"><a xlink:title="make &#45;C testdata/basic &#45;Bnd | ./bin/makesense &#45;&#45;type gv &gt; assets/basic.svg">
<ellipse fill="none" stroke="#ff0000" cx="565.658" cy="-433.3219" rx="71.824" ry="71.824"/>
<text text-anchor="middle" x="565.658" y="-429.1219" font-family="Times,serif" font-size="14.00" fill="#000000">assets/basic.svg</text>
</a>
</g>
</g>
<!-- n5&#45;&gt;n4 -->
<g id="edge2" class="edge">
<title>n5&#45;&gt;n4</title>
<path fill="none" stroke="#000000" d="M430.4882,-593.4424C451.627,-568.4016 484.5053,-529.4545 512.5423,-496.2422"/>
<polygon fill="#000000" stroke="#000000" points="515.4073,-498.2742 519.1835,-488.3751 510.0583,-493.7587 515.4073,-498.2742"/>
</g>
<!-- n9 -->
<g id="node16" class="node">
<title>n9</title>
<g id="a_node16"><a xlink:title="make &#45;C testdata/c &#45;Bnd | ./bin/makesense &#45;&#45;type gv &gt; assets/c.svg">
<ellipse fill="none" stroke="#ff0000" cx="711.658" cy="-433.3219" rx="56.2154" ry="56.2154"/>
<text text-anchor="middle" x="711.658" y="-429.1219" font-family="Times,serif" font-size="14.00" fill="#000000">assets/c.svg</text>
</a>
</g>
</g>
<!-- n5&#45;&gt;n9 -->
<g id="edge4" class="edge">
<title>n5&#45;&gt;n9</title>
<path fill="none" stroke="#000000" d="M432.6099,-595.4751C445.0829,-584.3427 461.1529,-571.8482 477.658,-564.0243 547.0526,-531.1293 582.8269,-570.7241 646.658,-528.0243 660.2468,-518.9341 671.7984,-505.9534 681.224,-492.5064"/>
<polygon fill="#000000" stroke="#000000" points="684.1893,-494.3679 686.8172,-484.1041 678.3623,-490.489 684.1893,-494.3679"/>
</g>
<!-- n13 -->
<g id="node3" class="node">
<title>n13</title>
<ellipse fill="none" stroke="#ff0000" cx="816.658" cy="-433.3219" rx="30.7789" ry="30.7789"/>
<text text-anchor="middle" x="816.658" y="-429.1219" font-family="Times,serif" font-size="14.00" fill="#000000">build</text>
</g>
<!-- n13&#45;&gt;n3 -->
<g id="edge11" class="edge">
<title>n13&#45;&gt;n3</title>
<path fill="none" stroke="#000000" d="M811.7823,-402.4325C806.7316,-381.11 796.6251,-353.9367 776.658,-338.6196 684.0978,-267.6147 615.2048,-365.0505 516.658,-302.6196 509.9138,-298.347 504.3685,-291.9479 499.9605,-285.2744"/>
<polygon fill="#000000" stroke="#000000" points="502.7138,-283.0485 494.6487,-276.1779 496.6689,-286.5784 502.7138,-283.0485"/>
</g>
<!-- n2 -->
<g id="node4" class="node">
<title>n2</title>
<ellipse fill="none" stroke="#00ff00" cx="571.658" cy="-256.7283" rx="45.7829" ry="45.7829"/>
<text text-anchor="middle" x="571.658" y="-252.5283" font-family="Times,serif" font-size="14.00" fill="#000000">Makefile</text>
</g>
<!-- n2&#45;&gt;n1 -->
<g id="edge18" class="edge">
<title>n2&#45;&gt;n1</title>
<path fill="none" stroke="#000000" d="M558.873,-212.2752C556.134,-202.7516 553.1678,-192.4382 550.2005,-182.121"/>
<polygon fill="#000000" stroke="#000000" points="553.4903,-180.8967 547.3626,-172.2537 546.763,-182.8316 553.4903,-180.8967"/>
</g>
<!-- n6 -->
<g id="node5" class="node">
<title>n6</title>
<g id="a_node5"><a xlink:title="go build &#45;o ./bin ./...">
<ellipse fill="none" stroke="#ff0000" cx="539.658" cy="-619.3022" rx="52.7276" ry="52.7276"/>
<text text-anchor="middle" x="539.658" y="-615.1022" font-family="Times,serif" font-size="14.00" fill="#000000">makesense</text>
</a>
</g>
</g>
<!-- n6&#45;&gt;n13 -->
<g id="edge14" class="edge">
<title>n6&#45;&gt;n13</title>
<path fill="none" stroke="#000000" d="M592.2802,-611.3246C645.0725,-600.7806 725.6648,-577.4105 776.658,-528.0243 791.7639,-513.3944 801.438,-492.1705 807.4805,-473.5214"/>
<polygon fill="#000000" stroke="#000000" points="810.885,-474.3527 810.3969,-463.7691 804.1784,-472.3471 810.885,-474.3527"/>
</g>
<!-- n6&#45;&gt;n10 -->
<g id="edge21" class="edge">
<title>n6&#45;&gt;n10</title>
<path fill="none" stroke="#000000" d="M497.2211,-587.6335C483.3331,-578.6739 467.4118,-569.7995 451.658,-564.0243 345.4338,-525.083 298.9707,-582.2183 199.658,-528.0243 187.3683,-521.3179 176.0743,-511.9959 166.0522,-501.7978"/>
<polygon fill="#000000" stroke="#000000" points="168.3711,-499.1534 158.9834,-494.2421 163.2594,-503.9357 168.3711,-499.1534"/>
</g>
<!-- n6&#45;&gt;n11 -->
<g id="edge23" class="edge">
<title>n6&#45;&gt;n11</title>
<path fill="none" stroke="#000000" d="M496.1835,-588.7799C482.3778,-579.9771 466.764,-570.9032 451.658,-564.0243 401.3705,-541.1245 377.4875,-560.3284 332.658,-528.0243 319.5327,-518.5661 308.0475,-505.7193 298.4656,-492.5416"/>
<polygon fill="#000000" stroke="#000000" points="301.3313,-490.5321 292.7478,-484.3212 295.5847,-494.5292 301.3313,-490.5321"/>
</g>
<!-- n6&#45;&gt;n12 -->
<g id="edge25" class="edge">
<title>n6&#45;&gt;n12</title>
<path fill="none" stroke="#000000" d="M508.9443,-575.6981C492.3622,-552.1565 471.5898,-522.666 453.2575,-496.6396"/>
<polygon fill="#000000" stroke="#000000" points="456.0196,-494.4831 447.3995,-488.3231 450.2968,-498.5141 456.0196,-494.4831"/>
</g>
<!-- n15 -->
<g id="node12" class="node">
<title>n15</title>
<g id="a_node12"><a xlink:title="make &#45;Bnd | ./bin/makesense &#45;&#45;type gv &gt; .makesense/make.svg">
<ellipse fill="none" stroke="#ff0000" cx="960.658" cy="-433.3219" rx="94.9051" ry="94.9051"/>
<text text-anchor="middle" x="960.658" y="-429.1219" font-family="Times,serif" font-size="14.00" fill="#000000">.makesense/make.svg</text>
</a>
</g>
</g>
<!-- n6&#45;&gt;n15 -->
<g id="edge27" class="edge">
<title>n6&#45;&gt;n15</title>
<path fill="none" stroke="#000000" d="M592.1593,-611.7392C657.4553,-600.6864 770.7886,-575.9997 856.658,-528.0243 866.9007,-522.3017 876.962,-515.3912 886.5493,-507.9405"/>
<polygon fill="#000000" stroke="#000000" points="888.8784,-510.559 894.4846,-501.5689 884.4958,-505.1007 888.8784,-510.559"/>
</g>
<!-- n6&#45;&gt;n4 -->
<g id="edge3" class="edge">
<title>n6&#45;&gt;n4</title>
<path fill="none" stroke="#000000" d="M547.039,-566.5052C549.2855,-550.436 551.8092,-532.384 554.2561,-514.8807"/>
<polygon fill="#000000" stroke="#000000" points="557.767,-515.0458 555.6853,-504.6575 550.8344,-514.0766 557.767,-515.0458"/>
</g>
<!-- n6&#45;&gt;n9 -->
<g id="edge5" class="edge">
<title>n6&#45;&gt;n9</title>
<path fill="none" stroke="#000000" d="M582.087,-587.4104C602.7282,-570.8595 627.2158,-549.6179 646.658,-528.0243 657.0563,-516.4754 667.1473,-503.1819 676.1544,-490.2763"/>
<polygon fill="#000000" stroke="#000000" points="679.1462,-492.1019 681.9091,-481.8736 673.3708,-488.1464 679.1462,-492.1019"/>
</g>
<!-- n8 -->
<g id="node6" class="node">
<title>n8</title>
<ellipse fill="none" stroke="#00ff00" cx="340.658" cy="-793.7529" rx="83.3462" ry="83.3462"/>
<text text-anchor="middle" x="340.658" y="-789.5529" font-family="Times,serif" font-size="14.00" fill="#000000">makesense_test.go</text>
</g>
<!-- n8&#45;&gt;n6 -->
<g id="edge16" class="edge">
<title>n8&#45;&gt;n6</title>
<path fill="none" stroke="#000000" d="M403.3497,-738.7951C432.0723,-713.6158 465.5586,-684.2605 492.1529,-660.9469"/>
<polygon fill="#000000" stroke="#000000" points="494.6033,-663.4533 499.8158,-654.2293 489.9889,-658.1895 494.6033,-663.4533"/>
</g>
<!-- n14 -->
<g id="node7" class="node">
<title>n14</title>
<g id="a_node7"><a xlink:title="go test ./...">
<ellipse fill="none" stroke="#ff0000" cx="174.658" cy="-619.3022" rx="24.3924" ry="24.3924"/>
<text text-anchor="middle" x="174.658" y="-615.1022" font-family="Times,serif" font-size="14.00" fill="#000000">test</text>
</a>
</g>
</g>
<!-- n8&#45;&gt;n14 -->
<g id="edge17" class="edge">
<title>n8&#45;&gt;n14</title>
<path fill="none" stroke="#000000" d="M283.0652,-733.2281C254.1239,-702.8135 220.6215,-667.6055 198.61,-644.4735"/>
<polygon fill="#000000" stroke="#000000" points="201.038,-641.9478 191.609,-637.1161 195.9669,-646.7732 201.038,-641.9478"/>
</g>
<!-- n14&#45;&gt;n3 -->
<g id="edge12" class="edge">
<title>n14&#45;&gt;n3</title>
<path fill="none" stroke="#000000" d="M151.1581,-611.8392C118.3799,-600.0082 60.2005,-573.5018 35.658,-528.0243 -4.3205,-453.9435 -18.2875,-403.2425 35.658,-338.6196 89.6183,-273.979 362.5538,-260.2483 455.5616,-257.4303"/>
<polygon fill="#000000" stroke="#000000" points="455.8406,-260.9239 465.7383,-257.1444 455.6439,-253.9267 455.8406,-260.9239"/>
</g>
<!-- n0 -->
<g id="node13" class="node">
<title>n0</title>
<ellipse fill="#000000" stroke="#000000" cx="528.658" cy="-1.8" rx="1.8" ry="1.8"/>
</g>
<!-- n1&#45;&gt;n0 -->
<g id="edge1" class="edge">
<title>n1&#45;&gt;n0</title>
<path fill="none" stroke="#000000" d="M528.658,-39.5607C528.658,-29.7195 528.658,-20.6362 528.658,-13.8457"/>
<polygon fill="#000000" stroke="#000000" points="532.1581,-13.8161 528.658,-3.8161 525.1581,-13.8161 532.1581,-13.8161"/>
</g>
<!-- n10&#45;&gt;n3 -->
<g id="edge8" class="edge">
<title>n10&#45;&gt;n3</title>
<path fill="none" stroke="#000000" d="M160.2741,-373.3547C171.8158,-360.4099 185.1706,-347.8557 199.658,-338.6196 282.6034,-285.7399 400.3598,-266.2539 455.6824,-259.7141"/>
<polygon fill="#000000" stroke="#000000" points="456.3368,-263.1628 465.8857,-258.5727 455.5585,-256.2062 456.3368,-263.1628"/>
</g>
<!-- n11&#45;&gt;n3 -->
<g id="edge9" class="edge">
<title>n11&#45;&gt;n3</title>
<path fill="none" stroke="#000000" d="M294.4532,-383.5564C305.0968,-367.9076 318.1465,-351.396 332.658,-338.6196 370.5563,-305.2526 424.4222,-280.6092 457.3747,-267.4817"/>
<polygon fill="#000000" stroke="#000000" points="458.8383,-270.6679 466.8891,-263.7805 456.3005,-264.1441 458.8383,-270.6679"/>
</g>
<!-- n12&#45;&gt;n3 -->
<g id="edge10" class="edge">
<title>n12&#45;&gt;n3</title>
<path fill="none" stroke="#000000" d="M435.9386,-371.558C448.9314,-342.1422 463.8372,-308.3951 474.1107,-285.1356"/>
<polygon fill="#000000" stroke="#000000" points="477.3722,-286.4141 478.211,-275.8525 470.969,-283.5858 477.3722,-286.4141"/>
</g>
<!-- n15&#45;&gt;n3 -->
<g id="edge13" class="edge">
<title>n15&#45;&gt;n3</title>
<path fill="none" stroke="#000000" d="M896.3837,-363.7488C884.1177,-353.8574 870.6924,-344.9217 856.658,-338.6196 718.0371,-276.3717 646.3111,-381.87 516.658,-302.6196 509.8461,-298.4558 504.2774,-292.0942 499.8686,-285.4219"/>
<polygon fill="#000000" stroke="#000000" points="502.621,-283.1925 494.5677,-276.308 496.57,-286.7119 502.621,-283.1925"/>
</g>
<!-- n4&#45;&gt;n3 -->
<g id="edge6" class="edge">
<title>n4&#45;&gt;n3</title>
<path fill="none" stroke="#000000" d="M536.2413,-367.565C523.4779,-339.0341 509.2092,-307.1383 499.2674,-284.9148"/>
<polygon fill="#000000" stroke="#000000" points="502.4354,-283.4254 495.1569,-275.7264 496.0457,-286.2839 502.4354,-283.4254"/>
</g>
<!-- n7 -->
<g id="node15" class="node">
<title>n7</title>
<ellipse fill="none" stroke="#00ff00" cx="539.658" cy="-793.7529" rx="64.8697" ry="64.8697"/>
<text text-anchor="middle" x="539.658" y="-789.5529" font-family="Times,serif" font-size="14.00" fill="#000000">makesense.go</text>
</g>
<!-- n7&#45;&gt;n6 -->
<g id="edge15" class="edge">
<title>n7&#45;&gt;n6</title>
<path fill="none" stroke="#000000" d="M539.658,-728.7939C539.658,-713.6818 539.658,-697.614 539.658,-682.5758"/>
<polygon fill="#000000" stroke="#000000" points="543.1581,-682.3536 539.658,-672.3537 536.1581,-682.3537 543.1581,-682.3536"/>
</g>
<!-- n9&#45;&gt;n3 -->
<g id="edge7" class="edge">
<title>n9&#45;&gt;n3</title>
<path fill="none" stroke="#000000" d="M686.1211,-382.5996C675.8206,-366.5086 662.5666,-349.9701 646.658,-338.6196 597.8544,-303.799 565.0664,-337.9877 516.658,-302.6196 510.3173,-297.9869 504.9477,-291.5741 500.5818,-285.0096"/>
<polygon fill="#000000" stroke="#000000" points="503.3957,-282.8961 495.2536,-276.117 497.391,-286.494 503.3957,-282.8961"/>
</g>
<!-- n16 -->
<g id="node17" class="node">
<title>n16</title>
<g id="a_node17"><a xlink:title="mkdir &#45;p .makesense">
<ellipse fill="none" stroke="#ff0000" cx="960.658" cy="-619.3022" rx="55.0566" ry="55.0566"/>
<text text-anchor="middle" x="960.658" y="-615.1022" font-family="Times,serif" font-size="14.00" fill="#000000">.makesense</text>
</a>
</g>
</g>
<!-- n16&#45;&gt;n15 -->
<g id="edge26" class="edge">
<title>n16&#45;&gt;n15</title>
<path fill="none" stroke="#000000" d="M960.658,-564.0055C960.658,-555.7591 960.658,-547.0367 960.658,-538.168"/>
<polygon fill="#000000" stroke="#000000" points="964.1581,-538.1104 960.658,-528.1104 957.1581,-538.1105 964.1581,-538.1104"/>
</g>
</g>
</svg>
