<?xml version="1.0" encoding="UTF-8" standalone="no"?>
<!DOCTYPE svg PUBLIC "-//W3C//DTD SVG 1.1//EN"
 "http://www.w3.org/Graphics/SVG/1.1/DTD/svg11.dtd">
<!-- Generated by graphviz version 2.40.1 (20161225.0304)
 -->
<!-- Pages: 1 -->
<svg width="1066pt" height="885pt"
 viewBox="0.00 0.00 1065.51 884.93" xmlns="http://www.w3.org/2000/svg" xmlns:xlink="http://www.w3.org/1999/xlink">
<g id="graph0" class="graph" transform="scale(1 1) rotate(0) translate(4 880.9259)">
<polygon fill="#ffffff" stroke="transparent" points="-4,4 -4,-880.9259 1061.5113,-880.9259 1061.5113,4 -4,4"/>
<!-- n4 -->
<g id="node1" class="node">
<title>n4</title>
<g id="a_node1"><a xlink:title="MAKE &#45;C testdata/basic &#45;Bnd | ./makesense &#45;&#45;type gv &gt; assets/basic.svg">
<ellipse fill="none" stroke="#ff0000" cx="71.912" cy="-433.3219" rx="71.824" ry="71.824"/>
<text text-anchor="middle" x="71.912" y="-429.1219" font-family="Times,serif" font-size="14.00" fill="#000000">assets/basic.svg</text>
</a>
</g>
</g>
<!-- n3 -->
<g id="node14" class="node">
<title>n3</title>
<ellipse fill="none" stroke="#ff0000" cx="593.912" cy="-256.7283" rx="20.8829" ry="20.8829"/>
<text text-anchor="middle" x="593.912" y="-252.5283" font-family="Times,serif" font-size="14.00" fill="#000000">all</text>
</g>
<!-- n4&#45;&gt;n3 -->
<g id="edge3" class="edge">
<title>n4&#45;&gt;n3</title>
<path fill="none" stroke="#000000" d="M111.4422,-372.7956C123.1582,-359.3717 137.1377,-346.7378 152.912,-338.6196 315.9531,-254.7107 406.5986,-396.8302 563.912,-302.6196 570.917,-298.4245 576.5959,-291.8881 581.0509,-285.0505"/>
<polygon fill="#000000" stroke="#000000" points="584.0859,-286.7937 586.047,-276.382 578.0211,-283.2982 584.0859,-286.7937"/>
</g>
<!-- n6 -->
<g id="node2" class="node">
<title>n6</title>
<g id="a_node2"><a xlink:title="go build ./...">
<ellipse fill="none" stroke="#ff0000" cx="593.912" cy="-619.3022" rx="52.7276" ry="52.7276"/>
<text text-anchor="middle" x="593.912" y="-615.1022" font-family="Times,serif" font-size="14.00" fill="#000000">makesense</text>
</a>
</g>
</g>
<!-- n6&#45;&gt;n4 -->
<g id="edge16" class="edge">
<title>n6&#45;&gt;n4</title>
<path fill="none" stroke="#000000" d="M543.5217,-602.1107C506.4004,-589.9916 454.4868,-574.1738 407.912,-564.0243 296.0794,-539.6538 253.262,-583.0725 152.912,-528.0243 140.2742,-521.0917 128.7282,-511.3532 118.5617,-500.7388"/>
<polygon fill="#000000" stroke="#000000" points="121.0743,-498.2999 111.7473,-493.2742 115.9045,-503.0194 121.0743,-498.2999"/>
</g>
<!-- n9 -->
<g id="node6" class="node">
<title>n9</title>
<g id="a_node6"><a xlink:title="make &#45;C testdata/c &#45;Bnd | ./makesense &#45;&#45;type gv &gt; assets/c.svg">
<ellipse fill="none" stroke="#ff0000" cx="217.912" cy="-433.3219" rx="56.2154" ry="56.2154"/>
<text text-anchor="middle" x="217.912" y="-429.1219" font-family="Times,serif" font-size="14.00" fill="#000000">assets/c.svg</text>
</a>
</g>
</g>
<!-- n6&#45;&gt;n9 -->
<g id="edge20" class="edge">
<title>n6&#45;&gt;n9</title>
<path fill="none" stroke="#000000" d="M543.0266,-604.053C505.6624,-592.8867 453.6617,-577.4102 407.912,-564.0243 352.4246,-547.7892 329.8019,-561.8437 282.912,-528.0243 269.7861,-518.5572 258.4499,-505.575 249.088,-492.2579"/>
<polygon fill="#000000" stroke="#000000" points="251.9932,-490.3059 243.5156,-483.9512 246.18,-494.2056 251.9932,-490.3059"/>
</g>
<!-- n10 -->
<g id="node7" class="node">
<title>n10</title>
<g id="a_node7"><a xlink:title="make &#45;C testdata/basic &#45;Bnd | ./makesense &#45;&#45;type dot | dot &#45;Tpng &#45;o assets/basic.png">
<ellipse fill="none" stroke="#ff0000" cx="364.912" cy="-433.3219" rx="72.9697" ry="72.9697"/>
<text text-anchor="middle" x="364.912" y="-429.1219" font-family="Times,serif" font-size="14.00" fill="#000000">assets/basic.png</text>
</a>
</g>
</g>
<!-- n6&#45;&gt;n10 -->
<g id="edge22" class="edge">
<title>n6&#45;&gt;n10</title>
<path fill="none" stroke="#000000" d="M546.7756,-594.8599C516.6638,-578.1154 477.6474,-554.2514 446.912,-528.0243 436.5282,-519.1636 426.3069,-508.9551 416.7927,-498.5922"/>
<polygon fill="#000000" stroke="#000000" points="419.2869,-496.1314 409.9977,-491.0362 414.082,-500.8122 419.2869,-496.1314"/>
</g>
<!-- n12 -->
<g id="node8" class="node">
<title>n12</title>
<g id="a_node8"><a xlink:title="make &#45;Bnd | ./makesense &#45;&#45;type dot | dot &#45;Tpng &#45;o assets/this.png">
<ellipse fill="none" stroke="#ff0000" cx="522.912" cy="-433.3219" rx="67.1903" ry="67.1903"/>
<text text-anchor="middle" x="522.912" y="-429.1219" font-family="Times,serif" font-size="14.00" fill="#000000">assets/this.png</text>
</a>
</g>
</g>
<!-- n6&#45;&gt;n12 -->
<g id="edge24" class="edge">
<title>n6&#45;&gt;n12</title>
<path fill="none" stroke="#000000" d="M574.8853,-569.4629C567.407,-549.8739 558.6755,-527.0024 550.5277,-505.6596"/>
<polygon fill="#000000" stroke="#000000" points="553.7912,-504.3946 546.9547,-496.3005 547.2515,-506.8912 553.7912,-504.3946"/>
</g>
<!-- n13 -->
<g id="node11" class="node">
<title>n13</title>
<ellipse fill="none" stroke="#ff0000" cx="771.912" cy="-433.3219" rx="30.7789" ry="30.7789"/>
<text text-anchor="middle" x="771.912" y="-429.1219" font-family="Times,serif" font-size="14.00" fill="#000000">build</text>
</g>
<!-- n6&#45;&gt;n13 -->
<g id="edge27" class="edge">
<title>n6&#45;&gt;n13</title>
<path fill="none" stroke="#000000" d="M641.9674,-596.6907C671.2097,-580.9042 707.5042,-557.4152 731.912,-528.0243 745.0926,-512.1527 754.5255,-491.3058 760.9079,-473.2127"/>
<polygon fill="#000000" stroke="#000000" points="764.3057,-474.087 764.1443,-463.4934 757.6642,-471.8755 764.3057,-474.087"/>
</g>
<!-- n11 -->
<g id="node12" class="node">
<title>n11</title>
<g id="a_node12"><a xlink:title="make &#45;C testdata/c &#45;Bnd | ./makesense &#45;&#45;type dot | dot &#45;Tpng &#45;o assets/c.png">
<ellipse fill="none" stroke="#ff0000" cx="665.912" cy="-433.3219" rx="57.3609" ry="57.3609"/>
<text text-anchor="middle" x="665.912" y="-429.1219" font-family="Times,serif" font-size="14.00" fill="#000000">assets/c.png</text>
</a>
</g>
</g>
<!-- n6&#45;&gt;n11 -->
<g id="edge26" class="edge">
<title>n6&#45;&gt;n11</title>
<path fill="none" stroke="#000000" d="M613.0176,-569.9511C621.7342,-547.4358 632.1596,-520.5061 641.4418,-496.5298"/>
<polygon fill="#000000" stroke="#000000" points="644.7247,-497.7443 645.0711,-487.1551 638.1968,-495.2171 644.7247,-497.7443"/>
</g>
<!-- n15 -->
<g id="node16" class="node">
<title>n15</title>
<g id="a_node16"><a xlink:title="make &#45;Bnd | ./makesense &#45;&#45;type gv &gt; .makesense/make.svg">
<ellipse fill="none" stroke="#ff0000" cx="915.912" cy="-433.3219" rx="94.9051" ry="94.9051"/>
<text text-anchor="middle" x="915.912" y="-429.1219" font-family="Times,serif" font-size="14.00" fill="#000000">.makesense/make.svg</text>
</a>
</g>
</g>
<!-- n6&#45;&gt;n15 -->
<g id="edge13" class="edge">
<title>n6&#45;&gt;n15</title>
<path fill="none" stroke="#000000" d="M644.7828,-603.5558C690.5652,-588.1251 758.632,-561.9937 811.912,-528.0243 821.7247,-521.768 831.4881,-514.5592 840.8805,-506.9692"/>
<polygon fill="#000000" stroke="#000000" points="843.2043,-509.5893 848.6758,-500.5166 838.7407,-504.1969 843.2043,-509.5893"/>
</g>
<!-- n8 -->
<g id="node3" class="node">
<title>n8</title>
<ellipse fill="none" stroke="#00ff00" cx="921.912" cy="-793.7529" rx="83.3462" ry="83.3462"/>
<text text-anchor="middle" x="921.912" y="-789.5529" font-family="Times,serif" font-size="14.00" fill="#000000">makesense_test.go</text>
</g>
<!-- n8&#45;&gt;n6 -->
<g id="edge18" class="edge">
<title>n8&#45;&gt;n6</title>
<path fill="none" stroke="#000000" d="M848.3024,-754.6028C788.1862,-722.6293 704.505,-678.1224 649.7881,-649.0205"/>
<polygon fill="#000000" stroke="#000000" points="651.4006,-645.914 640.9282,-644.3083 648.1136,-652.0942 651.4006,-645.914"/>
</g>
<!-- n14 -->
<g id="node15" class="node">
<title>n14</title>
<g id="a_node15"><a xlink:title="go test ./...">
<ellipse fill="none" stroke="#ff0000" cx="1025.912" cy="-619.3022" rx="24.3924" ry="24.3924"/>
<text text-anchor="middle" x="1025.912" y="-615.1022" font-family="Times,serif" font-size="14.00" fill="#000000">test</text>
</a>
</g>
</g>
<!-- n8&#45;&gt;n14 -->
<g id="edge11" class="edge">
<title>n8&#45;&gt;n14</title>
<path fill="none" stroke="#000000" d="M964.5128,-722.2938C979.7875,-696.6718 996.1814,-669.1725 1008.1838,-649.0396"/>
<polygon fill="#000000" stroke="#000000" points="1011.2552,-650.7226 1013.3696,-640.3409 1005.2425,-647.1381 1011.2552,-650.7226"/>
</g>
<!-- n0 -->
<g id="node4" class="node">
<title>n0</title>
<ellipse fill="#000000" stroke="#000000" cx="550.912" cy="-1.8" rx="1.8" ry="1.8"/>
</g>
<!-- n7 -->
<g id="node5" class="node">
<title>n7</title>
<ellipse fill="none" stroke="#00ff00" cx="593.912" cy="-793.7529" rx="64.8697" ry="64.8697"/>
<text text-anchor="middle" x="593.912" y="-789.5529" font-family="Times,serif" font-size="14.00" fill="#000000">makesense.go</text>
</g>
<!-- n7&#45;&gt;n6 -->
<g id="edge17" class="edge">
<title>n7&#45;&gt;n6</title>
<path fill="none" stroke="#000000" d="M593.912,-728.7939C593.912,-713.6818 593.912,-697.614 593.912,-682.5758"/>
<polygon fill="#000000" stroke="#000000" points="597.4121,-682.3536 593.912,-672.3537 590.4121,-682.3537 597.4121,-682.3536"/>
</g>
<!-- n9&#45;&gt;n3 -->
<g id="edge4" class="edge">
<title>n9&#45;&gt;n3</title>
<path fill="none" stroke="#000000" d="M241.9479,-382.2618C252.2533,-365.7391 265.8942,-349.0147 282.912,-338.6196 390.3614,-272.9853 457.2087,-369.46 563.912,-302.6196 570.6778,-298.3813 576.2306,-291.9941 580.6389,-285.3209"/>
<polygon fill="#000000" stroke="#000000" points="583.9326,-286.6205 585.9472,-276.219 577.8858,-283.094 583.9326,-286.6205"/>
</g>
<!-- n10&#45;&gt;n3 -->
<g id="edge5" class="edge">
<title>n10&#45;&gt;n3</title>
<path fill="none" stroke="#000000" d="M407.6653,-373.5675C419.202,-360.615 432.5202,-348.004 446.912,-338.6196 492.485,-308.9027 520.4413,-335.3351 563.912,-302.6196 570.1864,-297.8975 575.5325,-291.4529 579.8968,-284.8864"/>
<polygon fill="#000000" stroke="#000000" points="583.0822,-286.3807 585.2348,-276.0069 577.0828,-282.7742 583.0822,-286.3807"/>
</g>
<!-- n12&#45;&gt;n3 -->
<g id="edge7" class="edge">
<title>n12&#45;&gt;n3</title>
<path fill="none" stroke="#000000" d="M547.9439,-371.0616C559.6293,-341.9973 572.9765,-308.7996 582.267,-285.6921"/>
<polygon fill="#000000" stroke="#000000" points="585.6233,-286.7264 586.1064,-276.1426 579.1286,-284.1152 585.6233,-286.7264"/>
</g>
<!-- n16 -->
<g id="node9" class="node">
<title>n16</title>
<g id="a_node9"><a xlink:title="mkdir &#45;p .makesense">
<ellipse fill="none" stroke="#ff0000" cx="915.912" cy="-619.3022" rx="55.0566" ry="55.0566"/>
<text text-anchor="middle" x="915.912" y="-615.1022" font-family="Times,serif" font-size="14.00" fill="#000000">.makesense</text>
</a>
</g>
</g>
<!-- n16&#45;&gt;n15 -->
<g id="edge12" class="edge">
<title>n16&#45;&gt;n15</title>
<path fill="none" stroke="#000000" d="M915.912,-564.0055C915.912,-555.7591 915.912,-547.0367 915.912,-538.168"/>
<polygon fill="#000000" stroke="#000000" points="919.4121,-538.1104 915.912,-528.1104 912.4121,-538.1105 919.4121,-538.1104"/>
</g>
<!-- n5 -->
<g id="node10" class="node">
<title>n5</title>
<g id="a_node10"><a xlink:title="mkdir &#45;p assets">
<ellipse fill="none" stroke="#ff0000" cx="364.912" cy="-619.3022" rx="33.6208" ry="33.6208"/>
<text text-anchor="middle" x="364.912" y="-615.1022" font-family="Times,serif" font-size="14.00" fill="#000000">assets</text>
</a>
</g>
</g>
<!-- n5&#45;&gt;n4 -->
<g id="edge15" class="edge">
<title>n5&#45;&gt;n4</title>
<path fill="none" stroke="#000000" d="M332.3778,-610.3864C288.6048,-597.3105 209.6954,-569.8534 152.912,-528.0243 141.6984,-519.7639 131.0025,-509.6695 121.273,-499.1857"/>
<polygon fill="#000000" stroke="#000000" points="123.6545,-496.5996 114.3656,-491.5038 118.4493,-501.28 123.6545,-496.5996"/>
</g>
<!-- n5&#45;&gt;n9 -->
<g id="edge19" class="edge">
<title>n5&#45;&gt;n9</title>
<path fill="none" stroke="#000000" d="M341.3815,-594.882C324.4756,-576.9214 301.4865,-551.6286 282.912,-528.0243 273.3017,-515.8117 263.5191,-502.2587 254.5596,-489.313"/>
<polygon fill="#000000" stroke="#000000" points="257.3423,-487.1822 248.8008,-480.9137 251.569,-491.1406 257.3423,-487.1822"/>
</g>
<!-- n5&#45;&gt;n10 -->
<g id="edge21" class="edge">
<title>n5&#45;&gt;n10</title>
<path fill="none" stroke="#000000" d="M364.912,-585.6225C364.912,-566.2104 364.912,-540.8798 364.912,-516.465"/>
<polygon fill="#000000" stroke="#000000" points="368.4121,-516.4435 364.912,-506.4436 361.4121,-516.4436 368.4121,-516.4435"/>
</g>
<!-- n5&#45;&gt;n12 -->
<g id="edge23" class="edge">
<title>n5&#45;&gt;n12</title>
<path fill="none" stroke="#000000" d="M387.9163,-594.4518C404.5675,-576.2829 427.4683,-550.918 446.912,-528.0243 456.1149,-517.1884 465.7432,-505.4897 474.9341,-494.1346"/>
<polygon fill="#000000" stroke="#000000" points="477.6642,-496.3248 481.2165,-486.3432 472.2149,-491.9309 477.6642,-496.3248"/>
</g>
<!-- n5&#45;&gt;n11 -->
<g id="edge25" class="edge">
<title>n5&#45;&gt;n11</title>
<path fill="none" stroke="#000000" d="M397.0444,-609.3169C453.1863,-591.4592 566.2747,-553.5375 598.912,-528.0243 611.4074,-518.2563 622.5553,-505.5365 632.0023,-492.6051"/>
<polygon fill="#000000" stroke="#000000" points="635.0865,-494.3029 637.9618,-484.1057 629.355,-490.2842 635.0865,-494.3029"/>
</g>
<!-- n13&#45;&gt;n3 -->
<g id="edge8" class="edge">
<title>n13&#45;&gt;n3</title>
<path fill="none" stroke="#000000" d="M764.4388,-402.8998C758.3131,-382.8702 747.9878,-357.0436 731.912,-338.6196 701.8319,-304.1458 653.5533,-280.2014 622.8043,-267.4642"/>
<polygon fill="#000000" stroke="#000000" points="624.0662,-264.1993 613.4821,-263.7234 621.4593,-270.6958 624.0662,-264.1993"/>
</g>
<!-- n11&#45;&gt;n3 -->
<g id="edge6" class="edge">
<title>n11&#45;&gt;n3</title>
<path fill="none" stroke="#000000" d="M644.1142,-379.8588C631.4716,-348.8505 616.046,-311.0162 605.6577,-285.537"/>
<polygon fill="#000000" stroke="#000000" points="608.8218,-284.0269 601.8054,-276.0884 602.3399,-286.6698 608.8218,-284.0269"/>
</g>
<!-- n2 -->
<g id="node13" class="node">
<title>n2</title>
<ellipse fill="none" stroke="#00ff00" cx="508.912" cy="-256.7283" rx="45.7829" ry="45.7829"/>
<text text-anchor="middle" x="508.912" y="-252.5283" font-family="Times,serif" font-size="14.00" fill="#000000">Makefile</text>
</g>
<!-- n1 -->
<g id="node17" class="node">
<title>n1</title>
<ellipse fill="none" stroke="#00ff00" cx="550.912" cy="-107.2185" rx="67.7372" ry="67.7372"/>
<text text-anchor="middle" x="550.912" y="-103.0185" font-family="Times,serif" font-size="14.00" fill="#000000">makesense.mk</text>
</g>
<!-- n2&#45;&gt;n1 -->
<g id="edge1" class="edge">
<title>n2&#45;&gt;n1</title>
<path fill="none" stroke="#000000" d="M521.3996,-212.2752C524.0567,-202.8168 526.9325,-192.5794 529.8109,-182.333"/>
<polygon fill="#000000" stroke="#000000" points="533.2294,-183.1054 532.5644,-172.5314 526.4902,-181.2122 533.2294,-183.1054"/>
</g>
<!-- n3&#45;&gt;n1 -->
<g id="edge2" class="edge">
<title>n3&#45;&gt;n1</title>
<path fill="none" stroke="#000000" d="M588.1128,-236.5647C584.0151,-222.3172 578.2443,-202.2524 572.4682,-182.1689"/>
<polygon fill="#000000" stroke="#000000" points="575.7672,-180.9765 569.6395,-172.3336 569.0399,-182.9114 575.7672,-180.9765"/>
</g>
<!-- n14&#45;&gt;n3 -->
<g id="edge9" class="edge">
<title>n14&#45;&gt;n3</title>
<path fill="none" stroke="#000000" d="M1034.0771,-595.9744C1050.9263,-543.1702 1082.9524,-413.293 1019.912,-338.6196 968.7922,-278.0666 713.8408,-261.7294 624.7234,-257.8325"/>
<polygon fill="#000000" stroke="#000000" points="624.8389,-254.3343 614.7023,-257.4168 624.5487,-261.3283 624.8389,-254.3343"/>
</g>
<!-- n15&#45;&gt;n3 -->
<g id="edge10" class="edge">
<title>n15&#45;&gt;n3</title>
<path fill="none" stroke="#000000" d="M849.2201,-365.9614C837.3811,-355.9934 824.7232,-346.4564 811.912,-338.6196 749.9702,-300.7288 667.6419,-275.6972 624.0199,-264.1314"/>
<polygon fill="#000000" stroke="#000000" points="624.8639,-260.7345 614.3053,-261.6097 623.1051,-267.51 624.8639,-260.7345"/>
</g>
<!-- n1&#45;&gt;n0 -->
<g id="edge14" class="edge">
<title>n1&#45;&gt;n0</title>
<path fill="none" stroke="#000000" d="M550.912,-39.5607C550.912,-29.7195 550.912,-20.6362 550.912,-13.8457"/>
<polygon fill="#000000" stroke="#000000" points="554.4121,-13.8161 550.912,-3.8161 547.4121,-13.8161 554.4121,-13.8161"/>
</g>
</g>
</svg>
