<?xml version="1.0" encoding="UTF-8" standalone="no"?>
<!DOCTYPE svg PUBLIC "-//W3C//DTD SVG 1.1//EN"
 "http://www.w3.org/Graphics/SVG/1.1/DTD/svg11.dtd">
<!-- Generated by graphviz version 2.40.1 (20161225.0304)
 -->
<!-- Pages: 1 -->
<svg width="1050pt" height="653pt"
 viewBox="0.00 0.00 1050.38 652.58" xmlns="http://www.w3.org/2000/svg" xmlns:xlink="http://www.w3.org/1999/xlink">
<g id="graph0" class="graph" transform="scale(1 1) rotate(0) translate(4 648.5759)">
<polygon fill="#ffffff" stroke="transparent" points="-4,4 -4,-648.5759 1046.3789,-648.5759 1046.3789,4 -4,4"/>
<!-- n6 -->
<g id="node1" class="node">
<title>n6</title>
<ellipse fill="none" stroke="#ff0000" cx="689.7023" cy="-613.6866" rx="30.7789" ry="30.7789"/>
<text text-anchor="middle" x="689.7023" y="-609.4866" font-family="Times,serif" font-size="14.00" fill="#000000">build</text>
</g>
<!-- n5 -->
<g id="node7" class="node">
<title>n5</title>
<g id="a_node7"><a xlink:title="mkdir &#45;p assets">
<ellipse fill="none" stroke="#ff0000" cx="689.7023" cy="-491.5195" rx="33.6208" ry="33.6208"/>
<text text-anchor="middle" x="689.7023" y="-487.3195" font-family="Times,serif" font-size="14.00" fill="#000000">assets</text>
</a>
</g>
</g>
<!-- n6&#45;&gt;n5 -->
<g id="edge25" class="edge">
<title>n6&#45;&gt;n5</title>
<path fill="none" stroke="#000000" d="M689.7023,-582.5426C689.7023,-568.1609 689.7023,-550.8375 689.7023,-535.1806"/>
<polygon fill="#000000" stroke="#000000" points="693.2024,-535.18 689.7023,-525.1801 686.2024,-535.1801 693.2024,-535.18"/>
</g>
<!-- n3 -->
<g id="node12" class="node">
<title>n3</title>
<ellipse fill="none" stroke="#ff0000" cx="565.7023" cy="-107.2185" rx="20.8829" ry="20.8829"/>
<text text-anchor="middle" x="565.7023" y="-103.0185" font-family="Times,serif" font-size="14.00" fill="#000000">all</text>
</g>
<!-- n6&#45;&gt;n3 -->
<g id="edge15" class="edge">
<title>n6&#45;&gt;n3</title>
<path fill="none" stroke="#000000" d="M719.5321,-604.2998C785.6523,-581.6745 943.5791,-517.1706 1005.7023,-400.2416 1045.1981,-325.9023 1062.5637,-272.9098 1005.7023,-210.837 943.9223,-143.3947 670.1197,-228.0093 595.7023,-174.837 583.545,-166.1503 576.2417,-151.3933 571.8914,-137.8776"/>
<polygon fill="#000000" stroke="#000000" points="575.1677,-136.5966 569.1088,-127.9052 568.4252,-138.4779 575.1677,-136.5966"/>
</g>
<!-- n7 -->
<g id="node13" class="node">
<title>n7</title>
<g id="a_node13"><a xlink:title="go build ./...">
<ellipse fill="none" stroke="#ff0000" cx="585.7023" cy="-491.5195" rx="52.7276" ry="52.7276"/>
<text text-anchor="middle" x="585.7023" y="-487.3195" font-family="Times,serif" font-size="14.00" fill="#000000">makesense</text>
</a>
</g>
</g>
<!-- n6&#45;&gt;n7 -->
<g id="edge18" class="edge">
<title>n6&#45;&gt;n7</title>
<path fill="none" stroke="#000000" d="M669.6501,-590.1316C657.4677,-575.8212 641.4659,-557.024 626.7034,-539.6828"/>
<polygon fill="#000000" stroke="#000000" points="629.1734,-537.1848 620.026,-531.839 623.8432,-541.7223 629.1734,-537.1848"/>
</g>
<!-- n12 -->
<g id="node2" class="node">
<title>n12</title>
<g id="a_node2"><a xlink:title="go test ./...">
<ellipse fill="none" stroke="#ff0000" cx="231.7023" cy="-305.5393" rx="24.3924" ry="24.3924"/>
<text text-anchor="middle" x="231.7023" y="-301.3393" font-family="Times,serif" font-size="14.00" fill="#000000">test</text>
</a>
</g>
</g>
<!-- n12&#45;&gt;n3 -->
<g id="edge16" class="edge">
<title>n12&#45;&gt;n3</title>
<path fill="none" stroke="#000000" d="M233.2882,-280.9068C236.0943,-259.0025 243.7782,-227.8804 264.7023,-210.837 359.2499,-133.8247 439.5235,-248.501 536.7023,-174.837 548.5454,-165.8596 555.6136,-151.0761 559.8009,-137.6181"/>
<polygon fill="#000000" stroke="#000000" points="563.2501,-138.2694 562.4727,-127.7031 556.4912,-136.448 563.2501,-138.2694"/>
</g>
<!-- n13 -->
<g id="node3" class="node">
<title>n13</title>
<g id="a_node3"><a xlink:title="make &#45;Bnd | ./makesense &#45;&#45;type gv &gt; .makesense/make.svg">
<ellipse fill="none" stroke="#ff0000" cx="94.7023" cy="-305.5393" rx="94.9051" ry="94.9051"/>
<text text-anchor="middle" x="94.7023" y="-301.3393" font-family="Times,serif" font-size="14.00" fill="#000000">.makesense/make.svg</text>
</a>
</g>
</g>
<!-- n13&#45;&gt;n3 -->
<g id="edge17" class="edge">
<title>n13&#45;&gt;n3</title>
<path fill="none" stroke="#000000" d="M158.98,-235.9736C171.2457,-226.0813 184.6699,-217.1435 198.7023,-210.837 336.4977,-148.9084 415.1573,-264.5561 536.7023,-174.837 548.6588,-166.0112 555.7373,-151.2415 559.9021,-137.7534"/>
<polygon fill="#000000" stroke="#000000" points="563.3592,-138.3725 562.5515,-127.8085 556.5951,-136.5704 563.3592,-138.3725"/>
</g>
<!-- n1 -->
<g id="node4" class="node">
<title>n1</title>
<ellipse fill="none" stroke="#00ff00" cx="459.7023" cy="-107.2185" rx="67.7372" ry="67.7372"/>
<text text-anchor="middle" x="459.7023" y="-103.0185" font-family="Times,serif" font-size="14.00" fill="#000000">makesense.mk</text>
</g>
<!-- n0 -->
<g id="node11" class="node">
<title>n0</title>
<ellipse fill="#000000" stroke="#000000" cx="565.7023" cy="-1.8" rx="1.8" ry="1.8"/>
</g>
<!-- n1&#45;&gt;n0 -->
<g id="edge7" class="edge">
<title>n1&#45;&gt;n0</title>
<path fill="none" stroke="#000000" d="M507.7401,-59.4443C526.5289,-40.7586 546.1568,-21.2383 557.0673,-10.3877"/>
<polygon fill="#000000" stroke="#000000" points="559.7397,-12.6662 564.3621,-3.1329 554.8035,-7.7028 559.7397,-12.6662"/>
</g>
<!-- n8 -->
<g id="node5" class="node">
<title>n8</title>
<g id="a_node5"><a xlink:title="make &#45;C testdata/c &#45;Bnd | ./makesense &#45;&#45;type gv &gt; assets/c.svg">
<ellipse fill="none" stroke="#ff0000" cx="778.7023" cy="-305.5393" rx="56.2154" ry="56.2154"/>
<text text-anchor="middle" x="778.7023" y="-301.3393" font-family="Times,serif" font-size="14.00" fill="#000000">assets/c.svg</text>
</a>
</g>
</g>
<!-- n8&#45;&gt;n3 -->
<g id="edge11" class="edge">
<title>n8&#45;&gt;n3</title>
<path fill="none" stroke="#000000" d="M752.9956,-255.0518C742.6814,-238.9796 729.4622,-222.393 713.7023,-210.837 669.4849,-178.4142 636.7552,-211.1836 595.7023,-174.837 584.6684,-165.0679 577.4985,-150.4707 572.9457,-137.3365"/>
<polygon fill="#000000" stroke="#000000" points="576.2571,-136.1977 569.9535,-127.682 569.5708,-138.2699 576.2571,-136.1977"/>
</g>
<!-- n14 -->
<g id="node6" class="node">
<title>n14</title>
<g id="a_node6"><a xlink:title="mkdir &#45;p .makesense">
<ellipse fill="none" stroke="#ff0000" cx="94.7023" cy="-491.5195" rx="55.0566" ry="55.0566"/>
<text text-anchor="middle" x="94.7023" y="-487.3195" font-family="Times,serif" font-size="14.00" fill="#000000">.makesense</text>
</a>
</g>
</g>
<!-- n14&#45;&gt;n13 -->
<g id="edge21" class="edge">
<title>n14&#45;&gt;n13</title>
<path fill="none" stroke="#000000" d="M94.7023,-436.2229C94.7023,-427.9765 94.7023,-419.2541 94.7023,-410.3854"/>
<polygon fill="#000000" stroke="#000000" points="98.2024,-410.3277 94.7023,-400.3278 91.2024,-410.3278 98.2024,-410.3277"/>
</g>
<!-- n5&#45;&gt;n8 -->
<g id="edge23" class="edge">
<title>n5&#45;&gt;n8</title>
<path fill="none" stroke="#000000" d="M704.1998,-461.2247C716.5283,-435.4622 734.6076,-397.6826 749.8688,-365.7917"/>
<polygon fill="#000000" stroke="#000000" points="753.1381,-367.0681 754.2976,-356.5369 746.8238,-364.0465 753.1381,-367.0681"/>
</g>
<!-- n4 -->
<g id="node8" class="node">
<title>n4</title>
<g id="a_node8"><a xlink:title="make &#45;C testdata/basic &#45;Bnd | ./makesense &#45;&#45;type gv &gt; assets/basic.svg">
<ellipse fill="none" stroke="#ff0000" cx="924.7023" cy="-305.5393" rx="71.824" ry="71.824"/>
<text text-anchor="middle" x="924.7023" y="-301.3393" font-family="Times,serif" font-size="14.00" fill="#000000">assets/basic.svg</text>
</a>
</g>
</g>
<!-- n5&#45;&gt;n4 -->
<g id="edge1" class="edge">
<title>n5&#45;&gt;n4</title>
<path fill="none" stroke="#000000" d="M720.2568,-477.189C752.7786,-461.1067 804.8085,-432.9441 843.7023,-400.2416 854.2292,-391.3905 864.5227,-381.0956 874.0497,-370.6197"/>
<polygon fill="#000000" stroke="#000000" points="876.8152,-372.7767 880.8436,-362.9776 871.5836,-368.1257 876.8152,-372.7767"/>
</g>
<!-- n9 -->
<g id="node9" class="node">
<title>n9</title>
<g id="a_node9"><a xlink:title="make &#45;C testdata/basic &#45;Bnd | ./makesense &#45;&#45;type dot | dot &#45;Tpng &#45;o assets/basic.png">
<ellipse fill="none" stroke="#ff0000" cx="346.7023" cy="-305.5393" rx="72.9697" ry="72.9697"/>
<text text-anchor="middle" x="346.7023" y="-301.3393" font-family="Times,serif" font-size="14.00" fill="#000000">assets/basic.png</text>
</a>
</g>
</g>
<!-- n5&#45;&gt;n9 -->
<g id="edge3" class="edge">
<title>n5&#45;&gt;n9</title>
<path fill="none" stroke="#000000" d="M673.4242,-461.8824C666.6951,-452.2537 658.0277,-442.4589 647.7023,-436.2416 563.1994,-385.3592 514.7875,-448.399 428.7023,-400.2416 416.4838,-393.4064 405.2252,-384.0204 395.2162,-373.7986"/>
<polygon fill="#000000" stroke="#000000" points="397.5355,-371.154 388.1531,-366.2324 392.4185,-375.9307 397.5355,-371.154"/>
</g>
<!-- n10 -->
<g id="node10" class="node">
<title>n10</title>
<g id="a_node10"><a xlink:title="make &#45;C testdata/c &#45;Bnd | ./makesense &#45;&#45;type dot | dot &#45;Tpng &#45;o assets/c.png">
<ellipse fill="none" stroke="#ff0000" cx="494.7023" cy="-305.5393" rx="57.3609" ry="57.3609"/>
<text text-anchor="middle" x="494.7023" y="-301.3393" font-family="Times,serif" font-size="14.00" fill="#000000">assets/c.png</text>
</a>
</g>
</g>
<!-- n5&#45;&gt;n10 -->
<g id="edge5" class="edge">
<title>n5&#45;&gt;n10</title>
<path fill="none" stroke="#000000" d="M672.1283,-462.6041C665.3865,-453.2672 657.0425,-443.4719 647.7023,-436.2416 614.9365,-410.8776 594.0321,-426.1593 561.7023,-400.2416 549.3276,-390.3213 538.2261,-377.5427 528.7856,-364.6032"/>
<polygon fill="#000000" stroke="#000000" points="531.4328,-362.2822 522.8249,-356.1053 525.702,-366.302 531.4328,-362.2822"/>
</g>
<!-- n11 -->
<g id="node14" class="node">
<title>n11</title>
<g id="a_node14"><a xlink:title="make &#45;Bnd | ./makesense &#45;&#45;type dot | dot &#45;Tpng &#45;o assets/this.png">
<ellipse fill="none" stroke="#ff0000" cx="637.7023" cy="-305.5393" rx="67.1903" ry="67.1903"/>
<text text-anchor="middle" x="637.7023" y="-301.3393" font-family="Times,serif" font-size="14.00" fill="#000000">assets/this.png</text>
</a>
</g>
</g>
<!-- n5&#45;&gt;n11 -->
<g id="edge19" class="edge">
<title>n5&#45;&gt;n11</title>
<path fill="none" stroke="#000000" d="M680.6446,-459.1242C674.5544,-437.3424 666.2676,-407.7041 658.5977,-380.2723"/>
<polygon fill="#000000" stroke="#000000" points="661.8685,-378.9725 655.805,-370.2843 655.1271,-380.8574 661.8685,-378.9725"/>
</g>
<!-- n4&#45;&gt;n3 -->
<g id="edge10" class="edge">
<title>n4&#45;&gt;n3</title>
<path fill="none" stroke="#000000" d="M884.8439,-245.6291C873.1341,-232.1934 859.2398,-219.3997 843.7023,-210.837 746.1572,-157.0794 684.4565,-242.1247 595.7023,-174.837 583.7955,-165.81 576.515,-151.0219 572.115,-137.5737"/>
<polygon fill="#000000" stroke="#000000" points="575.3972,-136.3211 569.2829,-127.6686 568.6669,-138.2455 575.3972,-136.3211"/>
</g>
<!-- n9&#45;&gt;n3 -->
<g id="edge12" class="edge">
<title>n9&#45;&gt;n3</title>
<path fill="none" stroke="#000000" d="M389.6135,-246.0239C401.1446,-233.0629 414.4207,-220.3881 428.7023,-210.837 470.7603,-182.71 499.4649,-209.0915 536.7023,-174.837 547.4898,-164.9136 554.4332,-150.3004 558.8112,-137.1956"/>
<polygon fill="#000000" stroke="#000000" points="562.1776,-138.154 561.6803,-127.5709 555.4693,-136.1543 562.1776,-138.154"/>
</g>
<!-- n10&#45;&gt;n3 -->
<g id="edge13" class="edge">
<title>n10&#45;&gt;n3</title>
<path fill="none" stroke="#000000" d="M514.1034,-251.3473C527.3832,-214.2536 544.4761,-166.5087 555.2651,-136.3723"/>
<polygon fill="#000000" stroke="#000000" points="558.5922,-137.4626 558.6677,-126.8681 552.0019,-135.1032 558.5922,-137.4626"/>
</g>
<!-- n3&#45;&gt;n0 -->
<g id="edge9" class="edge">
<title>n3&#45;&gt;n0</title>
<path fill="none" stroke="#000000" d="M565.7023,-86.3912C565.7023,-64.694 565.7023,-31.4519 565.7023,-13.7937"/>
<polygon fill="#000000" stroke="#000000" points="569.2024,-13.6325 565.7023,-3.6325 562.2024,-13.6326 569.2024,-13.6325"/>
</g>
<!-- n7&#45;&gt;n13 -->
<g id="edge22" class="edge">
<title>n7&#45;&gt;n13</title>
<path fill="none" stroke="#000000" d="M532.6925,-487.4824C455.2932,-479.7722 308.6206,-458.1855 198.7023,-400.2416 188.2389,-394.7258 178.0118,-387.9069 168.3062,-380.4755"/>
<polygon fill="#000000" stroke="#000000" points="170.2903,-377.5818 160.2824,-374.1042 165.9373,-383.0638 170.2903,-377.5818"/>
</g>
<!-- n7&#45;&gt;n8 -->
<g id="edge24" class="edge">
<title>n7&#45;&gt;n8</title>
<path fill="none" stroke="#000000" d="M623.8947,-454.3584C631.2089,-447.9899 638.9961,-441.681 646.7023,-436.2416 674.3197,-416.7481 688.5387,-422.8139 713.7023,-400.2416 725.5141,-389.6463 736.2628,-376.4883 745.4681,-363.3843"/>
<polygon fill="#000000" stroke="#000000" points="748.5691,-365.0478 751.2902,-354.8083 742.7776,-361.116 748.5691,-365.0478"/>
</g>
<!-- n7&#45;&gt;n4 -->
<g id="edge2" class="edge">
<title>n7&#45;&gt;n4</title>
<path fill="none" stroke="#000000" d="M621.9773,-452.8294C629.5987,-446.4594 637.9877,-440.5429 646.7023,-436.2416 726.5156,-396.8486 766.5497,-444.6201 843.7023,-400.2416 855.9261,-393.2105 867.1761,-383.6207 877.1559,-373.2308"/>
<polygon fill="#000000" stroke="#000000" points="880.0191,-375.2868 884.194,-365.5491 874.8579,-370.5579 880.0191,-375.2868"/>
</g>
<!-- n7&#45;&gt;n9 -->
<g id="edge4" class="edge">
<title>n7&#45;&gt;n9</title>
<path fill="none" stroke="#000000" d="M537.7381,-468.9113C505.2115,-452.3562 462.2066,-428.0006 428.7023,-400.2416 418.191,-391.5328 407.9047,-381.4015 398.365,-371.069"/>
<polygon fill="#000000" stroke="#000000" points="400.8564,-368.6056 391.558,-363.5271 395.66,-373.2957 400.8564,-368.6056"/>
</g>
<!-- n7&#45;&gt;n10 -->
<g id="edge6" class="edge">
<title>n7&#45;&gt;n10</title>
<path fill="none" stroke="#000000" d="M562.2676,-443.625C550.7298,-420.0448 536.6943,-391.36 524.4116,-366.2572"/>
<polygon fill="#000000" stroke="#000000" points="527.5125,-364.631 519.9735,-357.1869 521.2248,-367.7076 527.5125,-364.631"/>
</g>
<!-- n7&#45;&gt;n11 -->
<g id="edge20" class="edge">
<title>n7&#45;&gt;n11</title>
<path fill="none" stroke="#000000" d="M600.0492,-440.2073C605.2419,-421.6353 611.2166,-400.2668 616.8545,-380.1025"/>
<polygon fill="#000000" stroke="#000000" points="620.2682,-380.8911 619.5903,-370.3179 613.5267,-379.0061 620.2682,-380.8911"/>
</g>
<!-- n11&#45;&gt;n3 -->
<g id="edge14" class="edge">
<title>n11&#45;&gt;n3</title>
<path fill="none" stroke="#000000" d="M614.7231,-242.2441C601.8211,-206.7059 586.3403,-164.0647 576.2759,-136.3428"/>
<polygon fill="#000000" stroke="#000000" points="579.5303,-135.0506 572.8278,-126.8453 572.9505,-137.4394 579.5303,-135.0506"/>
</g>
<!-- n2 -->
<g id="node15" class="node">
<title>n2</title>
<ellipse fill="none" stroke="#00ff00" cx="650.7023" cy="-107.2185" rx="45.7829" ry="45.7829"/>
<text text-anchor="middle" x="650.7023" y="-103.0185" font-family="Times,serif" font-size="14.00" fill="#000000">Makefile</text>
</g>
<!-- n2&#45;&gt;n0 -->
<g id="edge8" class="edge">
<title>n2&#45;&gt;n0</title>
<path fill="none" stroke="#000000" d="M621.6879,-71.2343C604.6869,-50.1493 584.4739,-25.0809 573.5886,-11.5806"/>
<polygon fill="#000000" stroke="#000000" points="576.0995,-9.1187 567.098,-3.5309 570.6503,-13.5125 576.0995,-9.1187"/>
</g>
</g>
</svg>
