<?xml version="1.0" encoding="UTF-8" standalone="no"?>
<!DOCTYPE svg PUBLIC "-//W3C//DTD SVG 1.1//EN"
 "http://www.w3.org/Graphics/SVG/1.1/DTD/svg11.dtd">
<!-- Generated by graphviz version 2.40.1 (20161225.0304)
 -->
<!-- Pages: 1 -->
<svg width="1052pt" height="780pt"
 viewBox="0.00 0.00 1052.50 780.36" xmlns="http://www.w3.org/2000/svg" xmlns:xlink="http://www.w3.org/1999/xlink">
<g id="graph0" class="graph" transform="scale(1 1) rotate(0) translate(4 776.3585)">
<polygon fill="#ffffff" stroke="transparent" points="-4,4 -4,-776.3585 1048.4968,-776.3585 1048.4968,4 -4,4"/>
<!-- n1 -->
<g id="node1" class="node">
<title>n1</title>
<ellipse fill="none" stroke="#00ff00" cx="650.7023" cy="-107.2185" rx="67.7372" ry="67.7372"/>
<text text-anchor="middle" x="650.7023" y="-103.0185" font-family="Times,serif" font-size="14.00" fill="#000000">makesense.mk</text>
</g>
<!-- n0 -->
<g id="node9" class="node">
<title>n0</title>
<ellipse fill="#000000" stroke="#000000" cx="650.7023" cy="-1.8" rx="1.8" ry="1.8"/>
</g>
<!-- n1&#45;&gt;n0 -->
<g id="edge24" class="edge">
<title>n1&#45;&gt;n0</title>
<path fill="none" stroke="#000000" d="M650.7023,-39.5607C650.7023,-29.7195 650.7023,-20.6362 650.7023,-13.8457"/>
<polygon fill="#000000" stroke="#000000" points="654.2024,-13.8161 650.7023,-3.8161 647.2024,-13.8161 654.2024,-13.8161"/>
</g>
<!-- n3 -->
<g id="node2" class="node">
<title>n3</title>
<ellipse fill="none" stroke="#ff0000" cx="608.7023" cy="-256.7283" rx="20.8829" ry="20.8829"/>
<text text-anchor="middle" x="608.7023" y="-252.5283" font-family="Times,serif" font-size="14.00" fill="#000000">all</text>
</g>
<!-- n3&#45;&gt;n1 -->
<g id="edge8" class="edge">
<title>n3&#45;&gt;n1</title>
<path fill="none" stroke="#000000" d="M614.3667,-236.5647C618.369,-222.3172 624.0056,-202.2524 629.6474,-182.1689"/>
<polygon fill="#000000" stroke="#000000" points="633.0754,-182.9075 632.4103,-172.3336 626.3362,-181.0143 633.0754,-182.9075"/>
</g>
<!-- n9 -->
<g id="node3" class="node">
<title>n9</title>
<g id="a_node3"><a xlink:title="make &#45;C testdata/basic &#45;Bnd | ./makesense &#45;&#45;type dot | dot &#45;Tpng &#45;o assets/basic.png">
<ellipse fill="none" stroke="#ff0000" cx="412.7023" cy="-433.3219" rx="72.9697" ry="72.9697"/>
<text text-anchor="middle" x="412.7023" y="-429.1219" font-family="Times,serif" font-size="14.00" fill="#000000">assets/basic.png</text>
</a>
</g>
</g>
<!-- n9&#45;&gt;n3 -->
<g id="edge11" class="edge">
<title>n9&#45;&gt;n3</title>
<path fill="none" stroke="#000000" d="M458.3356,-376.2279C469.6701,-363.3185 482.1758,-350.0585 494.7023,-338.6196 522.4664,-313.2661 558.1732,-288.7273 582.1637,-273.2305"/>
<polygon fill="#000000" stroke="#000000" points="584.1996,-276.0833 590.7437,-267.7511 580.4319,-270.1837 584.1996,-276.0833"/>
</g>
<!-- n13 -->
<g id="node4" class="node">
<title>n13</title>
<g id="a_node4"><a xlink:title="make &#45;Bnd | ./makesense &#45;&#45;type gv &gt; .makesense/make.svg">
<ellipse fill="none" stroke="#ff0000" cx="94.7023" cy="-433.3219" rx="94.9051" ry="94.9051"/>
<text text-anchor="middle" x="94.7023" y="-429.1219" font-family="Times,serif" font-size="14.00" fill="#000000">.makesense/make.svg</text>
</a>
</g>
</g>
<!-- n13&#45;&gt;n3 -->
<g id="edge16" class="edge">
<title>n13&#45;&gt;n3</title>
<path fill="none" stroke="#000000" d="M160.0761,-364.3573C172.1216,-354.5235 185.1894,-345.4479 198.7023,-338.6196 266.0424,-304.5917 494.3858,-271.8266 577.8364,-260.7128"/>
<polygon fill="#000000" stroke="#000000" points="578.4932,-264.1565 587.9491,-259.3779 577.5771,-257.2168 578.4932,-264.1565"/>
</g>
<!-- n14 -->
<g id="node5" class="node">
<title>n14</title>
<g id="a_node5"><a xlink:title="mkdir &#45;p .makesense">
<ellipse fill="none" stroke="#ff0000" cx="94.7023" cy="-619.3022" rx="55.0566" ry="55.0566"/>
<text text-anchor="middle" x="94.7023" y="-615.1022" font-family="Times,serif" font-size="14.00" fill="#000000">.makesense</text>
</a>
</g>
</g>
<!-- n14&#45;&gt;n13 -->
<g id="edge19" class="edge">
<title>n14&#45;&gt;n13</title>
<path fill="none" stroke="#000000" d="M94.7023,-564.0055C94.7023,-555.7591 94.7023,-547.0367 94.7023,-538.168"/>
<polygon fill="#000000" stroke="#000000" points="98.2024,-538.1104 94.7023,-528.1104 91.2024,-538.1105 98.2024,-538.1104"/>
</g>
<!-- n5 -->
<g id="node6" class="node">
<title>n5</title>
<g id="a_node6"><a xlink:title="mkdir &#45;p assets">
<ellipse fill="none" stroke="#ff0000" cx="611.7023" cy="-619.3022" rx="33.6208" ry="33.6208"/>
<text text-anchor="middle" x="611.7023" y="-615.1022" font-family="Times,serif" font-size="14.00" fill="#000000">assets</text>
</a>
</g>
</g>
<!-- n5&#45;&gt;n9 -->
<g id="edge17" class="edge">
<title>n5&#45;&gt;n9</title>
<path fill="none" stroke="#000000" d="M593.9138,-590.6566C587.1549,-581.3413 578.8548,-571.4907 569.7023,-564.0243 541.0519,-540.652 524.0847,-550.4695 494.7023,-528.0243 483.8548,-519.7378 473.3973,-509.8219 463.7905,-499.5737"/>
<polygon fill="#000000" stroke="#000000" points="466.2753,-497.1041 456.9522,-492.0712 461.1018,-501.8196 466.2753,-497.1041"/>
</g>
<!-- n11 -->
<g id="node8" class="node">
<title>n11</title>
<g id="a_node8"><a xlink:title="make &#45;Bnd | ./makesense &#45;&#45;type dot | dot &#45;Tpng &#45;o assets/this.png">
<ellipse fill="none" stroke="#ff0000" cx="768.7023" cy="-433.3219" rx="67.1903" ry="67.1903"/>
<text text-anchor="middle" x="768.7023" y="-429.1219" font-family="Times,serif" font-size="14.00" fill="#000000">assets/this.png</text>
</a>
</g>
</g>
<!-- n5&#45;&gt;n11 -->
<g id="edge22" class="edge">
<title>n5&#45;&gt;n11</title>
<path fill="none" stroke="#000000" d="M634.3714,-593.9471C650.5298,-575.7511 672.6715,-550.5656 691.7023,-528.0243 701.032,-516.9737 710.8599,-505.0842 720.2573,-493.5885"/>
<polygon fill="#000000" stroke="#000000" points="723.0761,-495.6701 726.683,-485.7081 717.651,-491.2464 723.0761,-495.6701"/>
</g>
<!-- n10 -->
<g id="node12" class="node">
<title>n10</title>
<g id="a_node12"><a xlink:title="make &#45;C testdata/c &#45;Bnd | ./makesense &#45;&#45;type dot | dot &#45;Tpng &#45;o assets/c.png">
<ellipse fill="none" stroke="#ff0000" cx="264.7023" cy="-433.3219" rx="57.3609" ry="57.3609"/>
<text text-anchor="middle" x="264.7023" y="-429.1219" font-family="Times,serif" font-size="14.00" fill="#000000">assets/c.png</text>
</a>
</g>
</g>
<!-- n5&#45;&gt;n10 -->
<g id="edge1" class="edge">
<title>n5&#45;&gt;n10</title>
<path fill="none" stroke="#000000" d="M595.4705,-589.5876C588.7456,-579.9517 580.0692,-570.1721 569.7023,-564.0243 477.3071,-509.2311 421.9525,-584.7038 330.7023,-528.0243 316.8867,-519.4428 305.1976,-506.7847 295.6753,-493.4971"/>
<polygon fill="#000000" stroke="#000000" points="298.5381,-491.4825 290.0267,-485.1732 292.7458,-495.4132 298.5381,-491.4825"/>
</g>
<!-- n4 -->
<g id="node14" class="node">
<title>n4</title>
<g id="a_node14"><a xlink:title="make &#45;C testdata/basic &#45;Bnd | ./makesense &#45;&#45;type gv &gt; assets/basic.svg">
<ellipse fill="none" stroke="#ff0000" cx="925.7023" cy="-433.3219" rx="71.824" ry="71.824"/>
<text text-anchor="middle" x="925.7023" y="-429.1219" font-family="Times,serif" font-size="14.00" fill="#000000">assets/basic.svg</text>
</a>
</g>
</g>
<!-- n5&#45;&gt;n4 -->
<g id="edge3" class="edge">
<title>n5&#45;&gt;n4</title>
<path fill="none" stroke="#000000" d="M644.6631,-611.8304C692.1713,-599.9162 781.1566,-573.2273 844.7023,-528.0243 856.0514,-519.9512 866.8147,-509.9498 876.5691,-499.5005"/>
<polygon fill="#000000" stroke="#000000" points="879.3865,-501.6027 883.4875,-491.8337 874.1896,-496.913 879.3865,-501.6027"/>
</g>
<!-- n8 -->
<g id="node15" class="node">
<title>n8</title>
<g id="a_node15"><a xlink:title="make &#45;C testdata/c &#45;Bnd | ./makesense &#45;&#45;type gv &gt; assets/c.svg">
<ellipse fill="none" stroke="#ff0000" cx="559.7023" cy="-433.3219" rx="56.2154" ry="56.2154"/>
<text text-anchor="middle" x="559.7023" y="-429.1219" font-family="Times,serif" font-size="14.00" fill="#000000">assets/c.svg</text>
</a>
</g>
</g>
<!-- n5&#45;&gt;n8 -->
<g id="edge5" class="edge">
<title>n5&#45;&gt;n8</title>
<path fill="none" stroke="#000000" d="M602.6446,-586.9069C595.7952,-562.4094 586.1671,-527.9744 577.7632,-497.9173"/>
<polygon fill="#000000" stroke="#000000" points="581.0294,-496.6007 574.9658,-487.9125 574.2879,-498.4856 581.0294,-496.6007"/>
</g>
<!-- n6 -->
<g id="node7" class="node">
<title>n6</title>
<ellipse fill="none" stroke="#ff0000" cx="611.7023" cy="-741.4693" rx="30.7789" ry="30.7789"/>
<text text-anchor="middle" x="611.7023" y="-737.2693" font-family="Times,serif" font-size="14.00" fill="#000000">build</text>
</g>
<!-- n6&#45;&gt;n3 -->
<g id="edge14" class="edge">
<title>n6&#45;&gt;n3</title>
<path fill="none" stroke="#000000" d="M642.1736,-735.8897C719.8046,-719.8443 924.664,-665.6048 1006.7023,-528.0243 1049.8153,-455.7227 1063.2546,-400.9741 1006.7023,-338.6196 951.5015,-277.7552 708.9809,-345.1934 638.7023,-302.6196 631.7187,-298.389 626.0468,-291.8409 621.5917,-285.0034"/>
<polygon fill="#000000" stroke="#000000" points="624.6222,-283.2522 616.5923,-276.3405 618.5594,-286.7511 624.6222,-283.2522"/>
</g>
<!-- n6&#45;&gt;n5 -->
<g id="edge21" class="edge">
<title>n6&#45;&gt;n5</title>
<path fill="none" stroke="#000000" d="M611.7023,-710.3253C611.7023,-695.9435 611.7023,-678.6201 611.7023,-662.9632"/>
<polygon fill="#000000" stroke="#000000" points="615.2024,-662.9627 611.7023,-652.9627 608.2024,-662.9628 615.2024,-662.9627"/>
</g>
<!-- n7 -->
<g id="node10" class="node">
<title>n7</title>
<g id="a_node10"><a xlink:title="go build ./...">
<ellipse fill="none" stroke="#ff0000" cx="507.7023" cy="-619.3022" rx="52.7276" ry="52.7276"/>
<text text-anchor="middle" x="507.7023" y="-615.1022" font-family="Times,serif" font-size="14.00" fill="#000000">makesense</text>
</a>
</g>
</g>
<!-- n6&#45;&gt;n7 -->
<g id="edge25" class="edge">
<title>n6&#45;&gt;n7</title>
<path fill="none" stroke="#000000" d="M591.6501,-717.9142C579.4677,-703.6038 563.4659,-684.8067 548.7034,-667.4654"/>
<polygon fill="#000000" stroke="#000000" points="551.1734,-664.9674 542.026,-659.6216 545.8432,-669.505 551.1734,-664.9674"/>
</g>
<!-- n11&#45;&gt;n3 -->
<g id="edge13" class="edge">
<title>n11&#45;&gt;n3</title>
<path fill="none" stroke="#000000" d="M728.8947,-378.8135C717.6169,-364.986 704.8181,-350.6532 691.7023,-338.6196 670.72,-319.3684 658.659,-322.9321 638.7023,-302.6196 633.2906,-297.1113 628.296,-290.4856 623.9978,-284.0038"/>
<polygon fill="#000000" stroke="#000000" points="626.8673,-281.9915 618.5943,-275.3728 620.9341,-285.706 626.8673,-281.9915"/>
</g>
<!-- n7&#45;&gt;n9 -->
<g id="edge18" class="edge">
<title>n7&#45;&gt;n9</title>
<path fill="none" stroke="#000000" d="M483.484,-571.8903C473.5271,-552.3977 461.7568,-529.3552 450.7023,-507.7139"/>
<polygon fill="#000000" stroke="#000000" points="453.6817,-505.8525 446.0158,-498.5392 447.4479,-509.0368 453.6817,-505.8525"/>
</g>
<!-- n7&#45;&gt;n13 -->
<g id="edge20" class="edge">
<title>n7&#45;&gt;n13</title>
<path fill="none" stroke="#000000" d="M455.4116,-611.2706C391.5966,-599.8492 281.9238,-574.8961 198.7023,-528.0243 188.4794,-522.2665 178.4304,-515.3341 168.8501,-507.8709"/>
<polygon fill="#000000" stroke="#000000" points="170.905,-505.032 160.9194,-501.491 166.5173,-510.4862 170.905,-505.032"/>
</g>
<!-- n7&#45;&gt;n11 -->
<g id="edge23" class="edge">
<title>n7&#45;&gt;n11</title>
<path fill="none" stroke="#000000" d="M544.6931,-581.0516C552.1878,-574.7188 560.3477,-568.7028 568.7023,-564.0243 618.4006,-536.1939 644.2592,-559.5456 691.7023,-528.0243 704.0351,-519.8304 715.372,-509.0541 725.3379,-497.7156"/>
<polygon fill="#000000" stroke="#000000" points="728.2417,-499.7014 732.0137,-489.8008 722.8909,-495.1882 728.2417,-499.7014"/>
</g>
<!-- n7&#45;&gt;n10 -->
<g id="edge2" class="edge">
<title>n7&#45;&gt;n10</title>
<path fill="none" stroke="#000000" d="M457.6119,-601.1685C419.8394,-585.7742 368.2914,-560.9347 330.7023,-528.0243 318.9522,-517.7367 308.2398,-504.9366 299.0223,-492.1071"/>
<polygon fill="#000000" stroke="#000000" points="301.7626,-489.917 293.1849,-483.6981 296.0123,-493.9087 301.7626,-489.917"/>
</g>
<!-- n7&#45;&gt;n4 -->
<g id="edge4" class="edge">
<title>n7&#45;&gt;n4</title>
<path fill="none" stroke="#000000" d="M543.8043,-580.25C551.4416,-573.9133 559.8807,-568.1018 568.7023,-564.0243 680.9932,-512.1218 735.9313,-586.9478 844.7023,-528.0243 857.3764,-521.1585 868.9399,-511.452 879.1123,-500.8484"/>
<polygon fill="#000000" stroke="#000000" points="881.7674,-503.1313 885.9291,-493.3881 876.5998,-498.4095 881.7674,-503.1313"/>
</g>
<!-- n7&#45;&gt;n8 -->
<g id="edge6" class="edge">
<title>n7&#45;&gt;n8</title>
<path fill="none" stroke="#000000" d="M522.0492,-567.9899C528.1518,-546.1638 535.3343,-520.4754 541.781,-497.4183"/>
<polygon fill="#000000" stroke="#000000" points="545.1715,-498.2899 544.4936,-487.7168 538.43,-496.4049 545.1715,-498.2899"/>
</g>
<!-- n12 -->
<g id="node11" class="node">
<title>n12</title>
<g id="a_node11"><a xlink:title="go test ./...">
<ellipse fill="none" stroke="#ff0000" cx="658.7023" cy="-433.3219" rx="24.3924" ry="24.3924"/>
<text text-anchor="middle" x="658.7023" y="-429.1219" font-family="Times,serif" font-size="14.00" fill="#000000">test</text>
</a>
</g>
</g>
<!-- n12&#45;&gt;n3 -->
<g id="edge15" class="edge">
<title>n12&#45;&gt;n3</title>
<path fill="none" stroke="#000000" d="M651.9591,-409.5057C642.9727,-377.7669 627.0664,-321.5877 617.249,-286.9139"/>
<polygon fill="#000000" stroke="#000000" points="620.5041,-285.5627 614.4121,-276.8944 613.7688,-287.4697 620.5041,-285.5627"/>
</g>
<!-- n10&#45;&gt;n3 -->
<g id="edge12" class="edge">
<title>n10&#45;&gt;n3</title>
<path fill="none" stroke="#000000" d="M291.2034,-382.2551C301.6346,-366.3307 314.9301,-349.9824 330.7023,-338.6196 408.0119,-282.9236 523.0709,-264.8165 577.7237,-259.164"/>
<polygon fill="#000000" stroke="#000000" points="578.2012,-262.6343 587.8198,-258.1921 577.5304,-255.6665 578.2012,-262.6343"/>
</g>
<!-- n2 -->
<g id="node13" class="node">
<title>n2</title>
<ellipse fill="none" stroke="#00ff00" cx="693.7023" cy="-256.7283" rx="45.7829" ry="45.7829"/>
<text text-anchor="middle" x="693.7023" y="-252.5283" font-family="Times,serif" font-size="14.00" fill="#000000">Makefile</text>
</g>
<!-- n2&#45;&gt;n1 -->
<g id="edge7" class="edge">
<title>n2&#45;&gt;n1</title>
<path fill="none" stroke="#000000" d="M680.9173,-212.2752C678.1783,-202.7516 675.2121,-192.4382 672.2448,-182.121"/>
<polygon fill="#000000" stroke="#000000" points="675.5347,-180.8967 669.4069,-172.2537 668.8074,-182.8316 675.5347,-180.8967"/>
</g>
<!-- n4&#45;&gt;n3 -->
<g id="edge9" class="edge">
<title>n4&#45;&gt;n3</title>
<path fill="none" stroke="#000000" d="M885.2412,-373.2296C873.626,-359.9662 859.9267,-347.2985 844.7023,-338.6196 763.9578,-292.5899 716.3228,-353.7419 638.7023,-302.6196 632.0348,-298.2282 626.516,-291.7882 622.1088,-285.1133"/>
<polygon fill="#000000" stroke="#000000" points="624.863,-282.8909 616.7847,-276.0359 618.825,-286.4324 624.863,-282.8909"/>
</g>
<!-- n8&#45;&gt;n3 -->
<g id="edge10" class="edge">
<title>n8&#45;&gt;n3</title>
<path fill="none" stroke="#000000" d="M574.8038,-378.8971C583.2562,-348.4349 593.4678,-311.633 600.4597,-286.4345"/>
<polygon fill="#000000" stroke="#000000" points="603.8521,-287.2986 603.1533,-276.7268 597.1069,-285.4269 603.8521,-287.2986"/>
</g>
</g>
</svg>
