<?xml version="1.0" encoding="UTF-8" standalone="no"?>
<!DOCTYPE svg PUBLIC "-//W3C//DTD SVG 1.1//EN"
 "http://www.w3.org/Graphics/SVG/1.1/DTD/svg11.dtd">
<!-- Generated by graphviz version 2.40.1 (20161225.0304)
 -->
<!-- Pages: 1 -->
<svg width="164pt" height="393pt"
 viewBox="0.00 0.00 163.95 393.49" xmlns="http://www.w3.org/2000/svg" xmlns:xlink="http://www.w3.org/1999/xlink">
<g id="graph0" class="graph" transform="scale(1 1) rotate(0) translate(4 389.495)">
<polygon fill="#ffffff" stroke="transparent" points="-4,4 -4,-389.495 159.9475,-389.495 159.9475,4 -4,4"/>
<!-- n0 -->
<g id="node1" class="node">
<title>n0</title>
<ellipse fill="#000000" stroke="#000000" cx="45.8913" cy="-1.8" rx="1.8" ry="1.8"/>
</g>
<!-- n1 -->
<g id="node2" class="node">
<title>n1</title>
<ellipse fill="none" stroke="#00ff00" cx="45.8913" cy="-85.4913" rx="45.7829" ry="45.7829"/>
<text text-anchor="middle" x="45.8913" y="-81.2913" font-family="Times,serif" font-size="14.00" fill="#000000">Makefile</text>
</g>
<!-- n1&#45;&gt;n0 -->
<g id="edge1" class="edge">
<title>n1&#45;&gt;n0</title>
<path fill="none" stroke="#000000" d="M45.8913,-39.2395C45.8913,-29.9611 45.8913,-20.9748 45.8913,-14.1327"/>
<polygon fill="#000000" stroke="#000000" points="49.3914,-13.8975 45.8913,-3.8975 42.3914,-13.8976 49.3914,-13.8975"/>
</g>
<!-- n2 -->
<g id="node3" class="node">
<title>n2</title>
<g id="a_node3"><a xlink:title="echo a">
<ellipse fill="none" stroke="#ff0000" cx="45.8913" cy="-185.3826" rx="18" ry="18"/>
<text text-anchor="middle" x="45.8913" y="-181.1826" font-family="Times,serif" font-size="14.00" fill="#000000">a</text>
</a>
</g>
</g>
<!-- n2&#45;&gt;n1 -->
<g id="edge2" class="edge">
<title>n2&#45;&gt;n1</title>
<path fill="none" stroke="#000000" d="M45.8913,-167.061C45.8913,-159.6985 45.8913,-150.7784 45.8913,-141.576"/>
<polygon fill="#000000" stroke="#000000" points="49.3914,-141.54 45.8913,-131.54 42.3914,-141.5401 49.3914,-141.54"/>
</g>
<!-- n3 -->
<g id="node4" class="node">
<title>n3</title>
<g id="a_node4"><a xlink:title="echo b">
<ellipse fill="none" stroke="#ff0000" cx="45.8913" cy="-276.4388" rx="18" ry="18"/>
<text text-anchor="middle" x="45.8913" y="-272.2388" font-family="Times,serif" font-size="14.00" fill="#000000">b</text>
</a>
</g>
</g>
<!-- n3&#45;&gt;n2 -->
<g id="edge3" class="edge">
<title>n3&#45;&gt;n2</title>
<path fill="none" stroke="#000000" d="M45.8913,-258.0122C45.8913,-245.3405 45.8913,-228.2649 45.8913,-213.8543"/>
<polygon fill="#000000" stroke="#000000" points="49.3914,-213.471 45.8913,-203.4711 42.3914,-213.4711 49.3914,-213.471"/>
</g>
<!-- n4 -->
<g id="node5" class="node">
<title>n4</title>
<g id="a_node5"><a xlink:title="echo c&#10;echo multi&#10;echo line">
<ellipse fill="none" stroke="#ff0000" cx="22.8913" cy="-367.495" rx="18" ry="18"/>
<text text-anchor="middle" x="22.8913" y="-363.295" font-family="Times,serif" font-size="14.00" fill="#000000">c</text>
</a>
</g>
</g>
<!-- n4&#45;&gt;n2 -->
<g id="edge4" class="edge">
<title>n4&#45;&gt;n2</title>
<path fill="none" stroke="#000000" d="M19.4691,-349.799C15.2796,-324.8112 9.7909,-277.9326 18.8913,-239.3826 21.3221,-229.0858 26.0335,-218.5138 30.8492,-209.4845"/>
<polygon fill="#000000" stroke="#000000" points="33.9358,-211.1365 35.8142,-200.7095 27.8434,-207.6893 33.9358,-211.1365"/>
</g>
<!-- n4&#45;&gt;n3 -->
<g id="edge6" class="edge">
<title>n4&#45;&gt;n3</title>
<path fill="none" stroke="#000000" d="M27.3259,-349.9384C30.6351,-336.8377 35.2185,-318.692 39.0032,-303.7085"/>
<polygon fill="#000000" stroke="#000000" points="42.4147,-304.4941 41.4703,-293.9415 35.6278,-302.7798 42.4147,-304.4941"/>
</g>
<!-- n5 -->
<g id="node6" class="node">
<title>n5</title>
<g id="a_node6"><a xlink:title="# Testing comments&#10;echo &quot;hello&quot; &gt;test.txt ">
<ellipse fill="none" stroke="#ff0000" cx="118.8913" cy="-276.4388" rx="37.1124" ry="37.1124"/>
<text text-anchor="middle" x="118.8913" y="-272.2388" font-family="Times,serif" font-size="14.00" fill="#000000">test.txt</text>
</a>
</g>
</g>
<!-- n5&#45;&gt;n2 -->
<g id="edge5" class="edge">
<title>n5&#45;&gt;n2</title>
<path fill="none" stroke="#000000" d="M95.593,-247.3777C85.2513,-234.4781 73.2756,-219.5402 63.671,-207.5601"/>
<polygon fill="#000000" stroke="#000000" points="66.1397,-205.0438 57.1538,-199.4308 60.6781,-209.4223 66.1397,-205.0438"/>
</g>
</g>
</svg>
