<?xml version="1.0" encoding="UTF-8" standalone="no"?>
<!DOCTYPE svg PUBLIC "-//W3C//DTD SVG 1.1//EN"
 "http://www.w3.org/Graphics/SVG/1.1/DTD/svg11.dtd">
<!-- Generated by graphviz version 2.40.1 (20161225.0304)
 -->
<!-- Pages: 1 -->
<svg width="246pt" height="321pt"
 viewBox="0.00 0.00 245.95 321.49" xmlns="http://www.w3.org/2000/svg" xmlns:xlink="http://www.w3.org/1999/xlink">
<g id="graph0" class="graph" transform="scale(1 1) rotate(0) translate(4 317.495)">
<polygon fill="#ffffff" stroke="transparent" points="-4,4 -4,-317.495 241.9475,-317.495 241.9475,4 -4,4"/>
<!-- n0 -->
<g id="node1" class="node">
<title>n0</title>
<ellipse fill="#000000" stroke="#000000" cx="86.8913" cy="-1.8" rx="1.8" ry="1.8"/>
</g>
<!-- n1 -->
<g id="node2" class="node">
<title>n1</title>
<ellipse fill="none" stroke="#00ff00" cx="45.8913" cy="-85.4913" rx="45.7829" ry="45.7829"/>
<text text-anchor="middle" x="45.8913" y="-81.2913" font-family="Times,serif" font-size="14.00" fill="#000000">Makefile</text>
</g>
<!-- n1&#45;&gt;n0 -->
<g id="edge1" class="edge">
<title>n1&#45;&gt;n0</title>
<path fill="none" stroke="#000000" d="M66.1511,-44.136C71.8315,-32.5408 77.5366,-20.8954 81.5213,-12.7616"/>
<polygon fill="#000000" stroke="#000000" points="84.7656,-14.0947 86.022,-3.5746 78.4794,-11.0151 84.7656,-14.0947"/>
</g>
<!-- n2 -->
<g id="node3" class="node">
<title>n2</title>
<g id="a_node3"><a xlink:title="echo a">
<ellipse fill="none" stroke="#ff0000" cx="127.8913" cy="-85.4913" rx="18" ry="18"/>
<text text-anchor="middle" x="127.8913" y="-81.2913" font-family="Times,serif" font-size="14.00" fill="#000000">a</text>
</a>
</g>
</g>
<!-- n2&#45;&gt;n0 -->
<g id="edge2" class="edge">
<title>n2&#45;&gt;n0</title>
<path fill="none" stroke="#000000" d="M119.791,-68.9566C111.623,-52.2836 99.2482,-27.0234 92.2349,-12.7076"/>
<polygon fill="#000000" stroke="#000000" points="95.3574,-11.1257 87.8149,-3.6853 89.0712,-14.2053 95.3574,-11.1257"/>
</g>
<!-- n3 -->
<g id="node4" class="node">
<title>n3</title>
<g id="a_node4"><a xlink:title="echo b">
<ellipse fill="none" stroke="#ff0000" cx="127.8913" cy="-204.4388" rx="18" ry="18"/>
<text text-anchor="middle" x="127.8913" y="-200.2388" font-family="Times,serif" font-size="14.00" fill="#000000">b</text>
</a>
</g>
</g>
<!-- n3&#45;&gt;n2 -->
<g id="edge3" class="edge">
<title>n3&#45;&gt;n2</title>
<path fill="none" stroke="#000000" d="M127.8913,-186.3733C127.8913,-167.1604 127.8913,-136.502 127.8913,-114.0205"/>
<polygon fill="#000000" stroke="#000000" points="131.3914,-113.7269 127.8913,-103.7269 124.3914,-113.7269 131.3914,-113.7269"/>
</g>
<!-- n4 -->
<g id="node5" class="node">
<title>n4</title>
<g id="a_node5"><a xlink:title="echo c&#10;echo multi&#10;echo line">
<ellipse fill="none" stroke="#ff0000" cx="104.8913" cy="-295.495" rx="18" ry="18"/>
<text text-anchor="middle" x="104.8913" y="-291.295" font-family="Times,serif" font-size="14.00" fill="#000000">c</text>
</a>
</g>
</g>
<!-- n4&#45;&gt;n2 -->
<g id="edge4" class="edge">
<title>n4&#45;&gt;n2</title>
<path fill="none" stroke="#000000" d="M103.2249,-277.5135C102.3361,-267.0197 101.3361,-253.5197 100.8913,-241.495 99.6739,-208.5787 95.6683,-199.9047 100.8913,-167.3826 103.968,-148.2255 110.8501,-127.4755 116.8957,-111.656"/>
<polygon fill="#000000" stroke="#000000" points="120.2762,-112.625 120.6994,-102.0386 113.7669,-110.0505 120.2762,-112.625"/>
</g>
<!-- n4&#45;&gt;n3 -->
<g id="edge6" class="edge">
<title>n4&#45;&gt;n3</title>
<path fill="none" stroke="#000000" d="M109.3259,-277.9384C112.6351,-264.8377 117.2185,-246.692 121.0032,-231.7085"/>
<polygon fill="#000000" stroke="#000000" points="124.4147,-232.4941 123.4703,-221.9415 117.6278,-230.7798 124.4147,-232.4941"/>
</g>
<!-- n5 -->
<g id="node6" class="node">
<title>n5</title>
<g id="a_node6"><a xlink:title="# Testing comments&#10;echo &quot;hello&quot; &gt;test.txt ">
<ellipse fill="none" stroke="#ff0000" cx="200.8913" cy="-204.4388" rx="37.1124" ry="37.1124"/>
<text text-anchor="middle" x="200.8913" y="-200.2388" font-family="Times,serif" font-size="14.00" fill="#000000">test.txt</text>
</a>
</g>
</g>
<!-- n5&#45;&gt;n2 -->
<g id="edge5" class="edge">
<title>n5&#45;&gt;n2</title>
<path fill="none" stroke="#000000" d="M181.3287,-172.5631C169.2446,-152.8732 153.9782,-127.9977 142.86,-109.8816"/>
<polygon fill="#000000" stroke="#000000" points="145.6766,-107.7796 137.4629,-101.0875 139.7106,-111.4411 145.6766,-107.7796"/>
</g>
</g>
</svg>
