<?xml version="1.0" encoding="UTF-8" standalone="no"?>
<!DOCTYPE svg PUBLIC "-//W3C//DTD SVG 1.1//EN"
 "http://www.w3.org/Graphics/SVG/1.1/DTD/svg11.dtd">
<!-- Generated by graphviz version 2.40.1 (20161225.0304)
 -->
<!-- Pages: 1 -->
<svg width="174pt" height="393pt"
 viewBox="0.00 0.00 174.06 393.49" xmlns="http://www.w3.org/2000/svg" xmlns:xlink="http://www.w3.org/1999/xlink">
<g id="graph0" class="graph" transform="scale(1 1) rotate(0) translate(4 389.495)">
<polygon fill="#ffffff" stroke="transparent" points="-4,4 -4,-389.495 170.0562,-389.495 170.0562,4 -4,4"/>
<!-- n3 -->
<g id="node1" class="node">
<title>n3</title>
<g id="a_node1"><a xlink:title="echo b">
<ellipse fill="none" stroke="#ff0000" cx="18" cy="-276.4388" rx="18" ry="18"/>
<text text-anchor="middle" x="18" y="-272.2388" font-family="Times,serif" font-size="14.00" fill="#000000">b</text>
</a>
</g>
</g>
<!-- n2 -->
<g id="node6" class="node">
<title>n2</title>
<g id="a_node6"><a xlink:title="echo a">
<ellipse fill="none" stroke="#ff0000" cx="64" cy="-185.3826" rx="18" ry="18"/>
<text text-anchor="middle" x="64" y="-181.1826" font-family="Times,serif" font-size="14.00" fill="#000000">a</text>
</a>
</g>
</g>
<!-- n3&#45;&gt;n2 -->
<g id="edge3" class="edge">
<title>n3&#45;&gt;n2</title>
<path fill="none" stroke="#000000" d="M26.2239,-260.1598C33.1577,-246.4345 43.1985,-226.5588 51.1857,-210.7483"/>
<polygon fill="#000000" stroke="#000000" points="54.4622,-212.0246 55.8473,-201.5207 48.2142,-208.8682 54.4622,-212.0246"/>
</g>
<!-- n4 -->
<g id="node2" class="node">
<title>n4</title>
<g id="a_node2"><a xlink:title="echo c&#10;echo multi&#10;echo line">
<ellipse fill="none" stroke="#ff0000" cx="41" cy="-367.495" rx="18" ry="18"/>
<text text-anchor="middle" x="41" y="-363.295" font-family="Times,serif" font-size="14.00" fill="#000000">c</text>
</a>
</g>
</g>
<!-- n4&#45;&gt;n3 -->
<g id="edge6" class="edge">
<title>n4&#45;&gt;n3</title>
<path fill="none" stroke="#000000" d="M36.5654,-349.9384C33.2562,-336.8377 28.6728,-318.692 24.8881,-303.7085"/>
<polygon fill="#000000" stroke="#000000" points="28.2635,-302.7798 22.421,-293.9415 21.4767,-304.4941 28.2635,-302.7798"/>
</g>
<!-- n4&#45;&gt;n2 -->
<g id="edge4" class="edge">
<title>n4&#45;&gt;n2</title>
<path fill="none" stroke="#000000" d="M43.2894,-349.3676C47.302,-317.5965 55.6319,-251.6406 60.4147,-213.7706"/>
<polygon fill="#000000" stroke="#000000" points="63.9392,-213.7965 61.7198,-203.4367 56.9943,-212.9194 63.9392,-213.7965"/>
</g>
<!-- n5 -->
<g id="node3" class="node">
<title>n5</title>
<g id="a_node3"><a xlink:title="# Testing comments&#10;echo &quot;hello&quot; &gt;test.txt ">
<ellipse fill="none" stroke="#ff0000" cx="129" cy="-276.4388" rx="37.1124" ry="37.1124"/>
<text text-anchor="middle" x="129" y="-272.2388" font-family="Times,serif" font-size="14.00" fill="#000000">test.txt</text>
</a>
</g>
</g>
<!-- n5&#45;&gt;n2 -->
<g id="edge5" class="edge">
<title>n5&#45;&gt;n2</title>
<path fill="none" stroke="#000000" d="M107.3559,-246.1184C98.6449,-233.9154 88.7583,-220.0657 80.6281,-208.6764"/>
<polygon fill="#000000" stroke="#000000" points="83.4605,-206.6201 74.8018,-200.5145 77.7632,-210.6871 83.4605,-206.6201"/>
</g>
<!-- n0 -->
<g id="node4" class="node">
<title>n0</title>
<ellipse fill="#000000" stroke="#000000" cx="64" cy="-1.8" rx="1.8" ry="1.8"/>
</g>
<!-- n1 -->
<g id="node5" class="node">
<title>n1</title>
<ellipse fill="none" stroke="#00ff00" cx="64" cy="-85.4913" rx="45.7829" ry="45.7829"/>
<text text-anchor="middle" x="64" y="-81.2913" font-family="Times,serif" font-size="14.00" fill="#000000">Makefile</text>
</g>
<!-- n1&#45;&gt;n0 -->
<g id="edge1" class="edge">
<title>n1&#45;&gt;n0</title>
<path fill="none" stroke="#000000" d="M64,-39.2395C64,-29.9611 64,-20.9748 64,-14.1327"/>
<polygon fill="#000000" stroke="#000000" points="67.5001,-13.8975 64,-3.8975 60.5001,-13.8976 67.5001,-13.8975"/>
</g>
<!-- n2&#45;&gt;n1 -->
<g id="edge2" class="edge">
<title>n2&#45;&gt;n1</title>
<path fill="none" stroke="#000000" d="M64,-167.061C64,-159.6985 64,-150.7784 64,-141.576"/>
<polygon fill="#000000" stroke="#000000" points="67.5001,-141.54 64,-131.54 60.5001,-141.5401 67.5001,-141.54"/>
</g>
</g>
</svg>
