<?xml version="1.0" encoding="UTF-8" standalone="no"?>
<!DOCTYPE svg PUBLIC "-//W3C//DTD SVG 1.1//EN"
 "http://www.w3.org/Graphics/SVG/1.1/DTD/svg11.dtd">
<!-- Generated by graphviz version 2.40.1 (20161225.0304)
 -->
<!-- Pages: 1 -->
<svg width="356pt" height="431pt"
 viewBox="0.00 0.00 355.65 430.90" xmlns="http://www.w3.org/2000/svg" xmlns:xlink="http://www.w3.org/1999/xlink">
<g id="graph0" class="graph" transform="scale(1 1) rotate(0) translate(4 426.9024)">
<polygon fill="#ffffff" stroke="transparent" points="-4,4 -4,-426.9024 351.6512,-426.9024 351.6512,4 -4,4"/>
<!-- n2 -->
<g id="node1" class="node">
<title>n2</title>
<g id="a_node1"><a xlink:title="echo a">
<ellipse fill="none" stroke="#ff0000" cx="237.595" cy="-140.195" rx="18" ry="18"/>
<text text-anchor="middle" x="237.595" y="-135.995" font-family="Times,serif" font-size="14.00" fill="#000000">a</text>
</a>
</g>
</g>
<!-- n0 -->
<g id="node5" class="node">
<title>n0</title>
<ellipse fill="#000000" stroke="#000000" cx="168.595" cy="-1.8" rx="1.8" ry="1.8"/>
</g>
<!-- n2&#45;&gt;n0 -->
<g id="edge2" class="edge">
<title>n2&#45;&gt;n0</title>
<path fill="none" stroke="#000000" d="M235.8948,-122.2636C233.2203,-101.1465 226.5707,-65.6511 210.595,-39.6 202.4858,-26.3765 188.3703,-15.0671 178.7623,-8.3523"/>
<polygon fill="#000000" stroke="#000000" points="180.4684,-5.286 170.1838,-2.7408 176.6364,-11.144 180.4684,-5.286"/>
</g>
<!-- n3 -->
<g id="node2" class="node">
<title>n3</title>
<g id="a_node2"><a xlink:title="echo b">
<ellipse fill="none" stroke="#ff0000" cx="237.595" cy="-313.8462" rx="18" ry="18"/>
<text text-anchor="middle" x="237.595" y="-309.6462" font-family="Times,serif" font-size="14.00" fill="#000000">b</text>
</a>
</g>
</g>
<!-- n3&#45;&gt;n2 -->
<g id="edge3" class="edge">
<title>n3&#45;&gt;n2</title>
<path fill="none" stroke="#000000" d="M237.595,-295.5907C237.595,-265.2873 237.595,-204.3887 237.595,-168.4846"/>
<polygon fill="#000000" stroke="#000000" points="241.0951,-168.2059 237.595,-158.2059 234.0951,-168.206 241.0951,-168.2059"/>
</g>
<!-- n4 -->
<g id="node3" class="node">
<title>n4</title>
<g id="a_node3"><a xlink:title="echo c&#10;echo multi&#10;echo line">
<ellipse fill="none" stroke="#ff0000" cx="214.595" cy="-404.9024" rx="18" ry="18"/>
<text text-anchor="middle" x="214.595" y="-400.7024" font-family="Times,serif" font-size="14.00" fill="#000000">c</text>
</a>
</g>
</g>
<!-- n4&#45;&gt;n2 -->
<g id="edge4" class="edge">
<title>n4&#45;&gt;n2</title>
<path fill="none" stroke="#000000" d="M212.9286,-386.9209C212.0398,-376.427 211.0398,-362.927 210.595,-350.9024 209.3776,-317.9861 207.3861,-309.5722 210.595,-276.79 214.3372,-238.5599 223.8368,-195.1604 230.5044,-167.7391"/>
<polygon fill="#000000" stroke="#000000" points="233.9807,-168.2617 232.9898,-157.7133 227.1864,-166.5773 233.9807,-168.2617"/>
</g>
<!-- n4&#45;&gt;n3 -->
<g id="edge6" class="edge">
<title>n4&#45;&gt;n3</title>
<path fill="none" stroke="#000000" d="M219.0296,-387.3458C222.3388,-374.2451 226.9222,-356.0994 230.7069,-341.1159"/>
<polygon fill="#000000" stroke="#000000" points="234.1183,-341.9015 233.174,-331.3489 227.3315,-340.1872 234.1183,-341.9015"/>
</g>
<!-- n5 -->
<g id="node4" class="node">
<title>n5</title>
<g id="a_node4"><a xlink:title="# Testing comments&#10;echo &quot;hello&quot; &gt;test.txt ">
<ellipse fill="none" stroke="#ff0000" cx="310.595" cy="-313.8462" rx="37.1124" ry="37.1124"/>
<text text-anchor="middle" x="310.595" y="-309.6462" font-family="Times,serif" font-size="14.00" fill="#000000">test.txt</text>
</a>
</g>
</g>
<!-- n5&#45;&gt;n2 -->
<g id="edge5" class="edge">
<title>n5&#45;&gt;n2</title>
<path fill="none" stroke="#000000" d="M296.1726,-279.5383C282.2106,-246.3258 261.3449,-196.691 248.6506,-166.4939"/>
<polygon fill="#000000" stroke="#000000" points="251.7825,-164.9123 244.6806,-157.0502 245.3295,-167.6251 251.7825,-164.9123"/>
</g>
<!-- n1 -->
<g id="node6" class="node">
<title>n1</title>
<ellipse fill="none" stroke="#00ff00" cx="100.595" cy="-140.195" rx="100.6901" ry="100.6901"/>
<text text-anchor="middle" x="100.595" y="-135.995" font-family="Times,serif" font-size="14.00" fill="#000000">testdata/basic/Makefile</text>
</g>
<!-- n1&#45;&gt;n0 -->
<g id="edge1" class="edge">
<title>n1&#45;&gt;n0</title>
<path fill="none" stroke="#000000" d="M145.0028,-49.8155C152.2652,-35.0347 158.8266,-21.681 163.1752,-12.8306"/>
<polygon fill="#000000" stroke="#000000" points="166.422,-14.1591 167.6907,-3.6405 160.1395,-11.0721 166.422,-14.1591"/>
</g>
</g>
</svg>
