<?xml version="1.0" encoding="UTF-8" standalone="no"?>
<!DOCTYPE svg PUBLIC "-//W3C//DTD SVG 1.1//EN"
 "http://www.w3.org/Graphics/SVG/1.1/DTD/svg11.dtd">
<!-- Generated by graphviz version 2.40.1 (20161225.0304)
 -->
<!-- Pages: 1 -->
<svg width="238pt" height="321pt"
 viewBox="0.00 0.00 237.95 321.49" xmlns="http://www.w3.org/2000/svg" xmlns:xlink="http://www.w3.org/1999/xlink">
<g id="graph0" class="graph" transform="scale(1 1) rotate(0) translate(4 317.495)">
<polygon fill="#ffffff" stroke="transparent" points="-4,4 -4,-317.495 233.9475,-317.495 233.9475,4 -4,4"/>
<!-- n5 -->
<g id="node1" class="node">
<title>n5</title>
<g id="a_node1"><a xlink:title="# Testing comments&#10;echo &quot;hello&quot; &gt;test.txt ">
<ellipse fill="none" stroke="#ff0000" cx="37.0562" cy="-204.4388" rx="37.1124" ry="37.1124"/>
<text text-anchor="middle" x="37.0562" y="-200.2388" font-family="Times,serif" font-size="14.00" fill="#000000">test.txt</text>
</a>
</g>
</g>
<!-- n2 -->
<g id="node4" class="node">
<title>n2</title>
<g id="a_node4"><a xlink:title="echo a">
<ellipse fill="none" stroke="#ff0000" cx="102.0562" cy="-85.4913" rx="18" ry="18"/>
<text text-anchor="middle" x="102.0562" y="-81.2913" font-family="Times,serif" font-size="14.00" fill="#000000">a</text>
</a>
</g>
</g>
<!-- n5&#45;&gt;n2 -->
<g id="edge5" class="edge">
<title>n5&#45;&gt;n2</title>
<path fill="none" stroke="#000000" d="M54.9898,-171.621C65.5161,-152.3582 78.613,-128.3915 88.3166,-110.6342"/>
<polygon fill="#000000" stroke="#000000" points="91.5965,-111.9308 93.3206,-101.4771 85.4539,-108.574 91.5965,-111.9308"/>
</g>
<!-- n0 -->
<g id="node2" class="node">
<title>n0</title>
<ellipse fill="#000000" stroke="#000000" cx="143.0562" cy="-1.8" rx="1.8" ry="1.8"/>
</g>
<!-- n1 -->
<g id="node3" class="node">
<title>n1</title>
<ellipse fill="none" stroke="#00ff00" cx="184.0562" cy="-85.4913" rx="45.7829" ry="45.7829"/>
<text text-anchor="middle" x="184.0562" y="-81.2913" font-family="Times,serif" font-size="14.00" fill="#000000">Makefile</text>
</g>
<!-- n1&#45;&gt;n0 -->
<g id="edge1" class="edge">
<title>n1&#45;&gt;n0</title>
<path fill="none" stroke="#000000" d="M163.7964,-44.136C158.116,-32.5408 152.4109,-20.8954 148.4262,-12.7616"/>
<polygon fill="#000000" stroke="#000000" points="151.4681,-11.0151 143.9255,-3.5746 145.1819,-14.0947 151.4681,-11.0151"/>
</g>
<!-- n2&#45;&gt;n0 -->
<g id="edge2" class="edge">
<title>n2&#45;&gt;n0</title>
<path fill="none" stroke="#000000" d="M110.1565,-68.9566C118.3245,-52.2836 130.6993,-27.0234 137.7126,-12.7076"/>
<polygon fill="#000000" stroke="#000000" points="140.8762,-14.2053 142.1326,-3.6853 134.5901,-11.1257 140.8762,-14.2053"/>
</g>
<!-- n3 -->
<g id="node5" class="node">
<title>n3</title>
<g id="a_node5"><a xlink:title="echo b">
<ellipse fill="none" stroke="#ff0000" cx="148.0562" cy="-204.4388" rx="18" ry="18"/>
<text text-anchor="middle" x="148.0562" y="-200.2388" font-family="Times,serif" font-size="14.00" fill="#000000">b</text>
</a>
</g>
</g>
<!-- n3&#45;&gt;n2 -->
<g id="edge3" class="edge">
<title>n3&#45;&gt;n2</title>
<path fill="none" stroke="#000000" d="M141.5631,-187.6488C133.9693,-168.0129 121.3017,-135.2568 112.361,-112.1378"/>
<polygon fill="#000000" stroke="#000000" points="115.5366,-110.6455 108.6652,-102.5811 109.0078,-113.1704 115.5366,-110.6455"/>
</g>
<!-- n4 -->
<g id="node6" class="node">
<title>n4</title>
<g id="a_node6"><a xlink:title="echo c&#10;echo multi&#10;echo line">
<ellipse fill="none" stroke="#ff0000" cx="125.0562" cy="-295.495" rx="18" ry="18"/>
<text text-anchor="middle" x="125.0562" y="-291.295" font-family="Times,serif" font-size="14.00" fill="#000000">c</text>
</a>
</g>
</g>
<!-- n4&#45;&gt;n2 -->
<g id="edge4" class="edge">
<title>n4&#45;&gt;n2</title>
<path fill="none" stroke="#000000" d="M123.0952,-277.5902C119.0909,-241.0284 109.9476,-157.5445 105.1402,-113.6506"/>
<polygon fill="#000000" stroke="#000000" points="108.6128,-113.2086 104.0449,-103.6491 101.6545,-113.9707 108.6128,-113.2086"/>
</g>
<!-- n4&#45;&gt;n3 -->
<g id="edge6" class="edge">
<title>n4&#45;&gt;n3</title>
<path fill="none" stroke="#000000" d="M129.4908,-277.9384C132.7999,-264.8377 137.3834,-246.692 141.1681,-231.7085"/>
<polygon fill="#000000" stroke="#000000" points="144.5795,-232.4941 143.6352,-221.9415 137.7927,-230.7798 144.5795,-232.4941"/>
</g>
</g>
</svg>
