<?xml version="1.0" encoding="UTF-8" standalone="no"?>
<!DOCTYPE svg PUBLIC "-//W3C//DTD SVG 1.1//EN"
 "http://www.w3.org/Graphics/SVG/1.1/DTD/svg11.dtd">
<!-- Generated by graphviz version 2.40.1 (20161225.0304)
 -->
<!-- Pages: 1 -->
<svg width="385pt" height="584pt"
 viewBox="0.00 0.00 385.17 583.92" xmlns="http://www.w3.org/2000/svg" xmlns:xlink="http://www.w3.org/1999/xlink">
<g id="graph0" class="graph" transform="scale(1 1) rotate(0) translate(4 579.9227)">
<polygon fill="#ffffff" stroke="transparent" points="-4,4 -4,-579.9227 381.1694,-579.9227 381.1694,4 -4,4"/>
<!-- n1 -->
<g id="node1" class="node">
<title>n1</title>
<ellipse fill="none" stroke="#00ff00" cx="190.9625" cy="-85.4913" rx="45.7829" ry="45.7829"/>
<text text-anchor="middle" x="190.9625" y="-81.2913" font-family="Times,serif" font-size="14.00" fill="#000000">Makefile</text>
</g>
<!-- n0 -->
<g id="node8" class="node">
<title>n0</title>
<ellipse fill="#000000" stroke="#000000" cx="190.9625" cy="-1.8" rx="1.8" ry="1.8"/>
</g>
<!-- n1&#45;&gt;n0 -->
<g id="edge5" class="edge">
<title>n1&#45;&gt;n0</title>
<path fill="none" stroke="#000000" d="M190.9625,-39.2395C190.9625,-29.9611 190.9625,-20.9748 190.9625,-14.1327"/>
<polygon fill="#000000" stroke="#000000" points="194.4626,-13.8975 190.9625,-3.8975 187.4626,-13.8976 194.4626,-13.8975"/>
</g>
<!-- n2 -->
<g id="node2" class="node">
<title>n2</title>
<g id="a_node2"><a xlink:title="gcc &#45;o hellomake hellomake.o hellofunc.o &#45;I.">
<ellipse fill="none" stroke="#ff0000" cx="190.9625" cy="-218.6442" rx="51.0242" ry="51.0242"/>
<text text-anchor="middle" x="190.9625" y="-214.4442" font-family="Times,serif" font-size="14.00" fill="#000000">hellomake</text>
</a>
</g>
</g>
<!-- n2&#45;&gt;n1 -->
<g id="edge6" class="edge">
<title>n2&#45;&gt;n1</title>
<path fill="none" stroke="#000000" d="M190.9625,-167.1638C190.9625,-158.8394 190.9625,-150.1825 190.9625,-141.7519"/>
<polygon fill="#000000" stroke="#000000" points="194.4626,-141.618 190.9625,-131.618 187.4626,-141.6181 194.4626,-141.618"/>
</g>
<!-- n3 -->
<g id="node3" class="node">
<title>n3</title>
<g id="a_node3"><a xlink:title="gcc &#45;c &#45;o hellomake.o hellomake.c &#45;I.">
<ellipse fill="none" stroke="#ff0000" cx="125.9625" cy="-364.41" rx="58.5085" ry="58.5085"/>
<text text-anchor="middle" x="125.9625" y="-360.21" font-family="Times,serif" font-size="14.00" fill="#000000">hellomake.o</text>
</a>
</g>
</g>
<!-- n3&#45;&gt;n2 -->
<g id="edge7" class="edge">
<title>n3&#45;&gt;n2</title>
<path fill="none" stroke="#000000" d="M149.797,-310.9599C155.0003,-299.2912 160.5233,-286.9056 165.7773,-275.1232"/>
<polygon fill="#000000" stroke="#000000" points="169.0459,-276.3872 169.922,-265.8286 162.6527,-273.5363 169.0459,-276.3872"/>
</g>
<!-- n4 -->
<g id="node4" class="node">
<title>n4</title>
<ellipse fill="none" stroke="#00ff00" cx="57.9625" cy="-517.4185" rx="57.925" ry="57.925"/>
<text text-anchor="middle" x="57.9625" y="-513.2185" font-family="Times,serif" font-size="14.00" fill="#000000">hellomake.c</text>
</g>
<!-- n4&#45;&gt;n3 -->
<g id="edge1" class="edge">
<title>n4&#45;&gt;n3</title>
<path fill="none" stroke="#000000" d="M81.5548,-464.333C86.8735,-452.365 92.5684,-439.5509 98.0455,-427.2267"/>
<polygon fill="#000000" stroke="#000000" points="101.3188,-428.4795 102.1816,-417.9199 94.922,-425.6367 101.3188,-428.4795"/>
</g>
<!-- n5 -->
<g id="node5" class="node">
<title>n5</title>
<ellipse fill="none" stroke="#00ff00" cx="191.9625" cy="-517.4185" rx="58.5085" ry="58.5085"/>
<text text-anchor="middle" x="191.9625" y="-513.2185" font-family="Times,serif" font-size="14.00" fill="#000000">hellomake.h</text>
</g>
<!-- n5&#45;&gt;n3 -->
<g id="edge2" class="edge">
<title>n5&#45;&gt;n3</title>
<path fill="none" stroke="#000000" d="M168.6934,-463.4734C163.715,-451.9321 158.4122,-439.6385 153.2966,-427.779"/>
<polygon fill="#000000" stroke="#000000" points="156.4185,-426.1796 149.244,-418.3836 149.991,-428.9521 156.4185,-426.1796"/>
</g>
<!-- n6 -->
<g id="node6" class="node">
<title>n6</title>
<g id="a_node6"><a xlink:title="gcc &#45;c &#45;o hellofunc.o hellofunc.c &#45;I.">
<ellipse fill="none" stroke="#ff0000" cx="256.9625" cy="-364.41" rx="54.9985" ry="54.9985"/>
<text text-anchor="middle" x="256.9625" y="-360.21" font-family="Times,serif" font-size="14.00" fill="#000000">hellofunc.o</text>
</a>
</g>
</g>
<!-- n5&#45;&gt;n6 -->
<g id="edge4" class="edge">
<title>n5&#45;&gt;n6</title>
<path fill="none" stroke="#000000" d="M214.8791,-463.4734C220.2614,-450.8035 226.0289,-437.227 231.5147,-424.3134"/>
<polygon fill="#000000" stroke="#000000" points="234.7613,-425.6224 235.45,-415.05 228.3186,-422.8854 234.7613,-425.6224"/>
</g>
<!-- n6&#45;&gt;n2 -->
<g id="edge8" class="edge">
<title>n6&#45;&gt;n2</title>
<path fill="none" stroke="#000000" d="M234.249,-314.2457C228.4881,-301.5221 222.2623,-287.7721 216.3769,-274.7738"/>
<polygon fill="#000000" stroke="#000000" points="219.4763,-273.1333 212.1631,-265.4673 213.0995,-276.0207 219.4763,-273.1333"/>
</g>
<!-- n7 -->
<g id="node7" class="node">
<title>n7</title>
<ellipse fill="none" stroke="#00ff00" cx="322.9625" cy="-517.4185" rx="54.4146" ry="54.4146"/>
<text text-anchor="middle" x="322.9625" y="-513.2185" font-family="Times,serif" font-size="14.00" fill="#000000">hellofunc.c</text>
</g>
<!-- n7&#45;&gt;n6 -->
<g id="edge3" class="edge">
<title>n7&#45;&gt;n6</title>
<path fill="none" stroke="#000000" d="M301.3516,-467.3178C295.3997,-453.5193 288.8843,-438.4146 282.723,-424.1309"/>
<polygon fill="#000000" stroke="#000000" points="285.9094,-422.6809 278.7348,-414.885 279.4818,-425.4535 285.9094,-422.6809"/>
</g>
</g>
</svg>
