<?xml version="1.0" encoding="UTF-8" standalone="no"?>
<!DOCTYPE svg PUBLIC "-//W3C//DTD SVG 1.1//EN"
 "http://www.w3.org/Graphics/SVG/1.1/DTD/svg11.dtd">
<!-- Generated by graphviz version 2.40.1 (20161225.0304)
 -->
<!-- Pages: 1 -->
<svg width="385pt" height="456pt"
 viewBox="0.00 0.00 385.17 456.14" xmlns="http://www.w3.org/2000/svg" xmlns:xlink="http://www.w3.org/1999/xlink">
<g id="graph0" class="graph" transform="scale(1 1) rotate(0) translate(4 452.1401)">
<polygon fill="#ffffff" stroke="transparent" points="-4,4 -4,-452.1401 381.1694,-452.1401 381.1694,4 -4,4"/>
<!-- n4 -->
<g id="node1" class="node">
<title>n4</title>
<ellipse fill="none" stroke="#00ff00" cx="57.9625" cy="-389.6359" rx="57.925" ry="57.925"/>
<text text-anchor="middle" x="57.9625" y="-385.4359" font-family="Times,serif" font-size="14.00" fill="#000000">hellomake.c</text>
</g>
<!-- n3 -->
<g id="node8" class="node">
<title>n3</title>
<g id="a_node8"><a xlink:title="gcc &#45;c &#45;o hellomake.o hellomake.c &#45;I.">
<ellipse fill="none" stroke="#ff0000" cx="125.9625" cy="-236.6273" rx="58.5085" ry="58.5085"/>
<text text-anchor="middle" x="125.9625" y="-232.4273" font-family="Times,serif" font-size="14.00" fill="#000000">hellomake.o</text>
</a>
</g>
</g>
<!-- n4&#45;&gt;n3 -->
<g id="edge3" class="edge">
<title>n4&#45;&gt;n3</title>
<path fill="none" stroke="#000000" d="M81.5548,-336.5503C86.8735,-324.5824 92.5684,-311.7683 98.0455,-299.4441"/>
<polygon fill="#000000" stroke="#000000" points="101.3188,-300.6969 102.1816,-290.1373 94.922,-297.854 101.3188,-300.6969"/>
</g>
<!-- n5 -->
<g id="node2" class="node">
<title>n5</title>
<ellipse fill="none" stroke="#00ff00" cx="191.9625" cy="-389.6359" rx="58.5085" ry="58.5085"/>
<text text-anchor="middle" x="191.9625" y="-385.4359" font-family="Times,serif" font-size="14.00" fill="#000000">hellomake.h</text>
</g>
<!-- n6 -->
<g id="node3" class="node">
<title>n6</title>
<g id="a_node3"><a xlink:title="gcc &#45;c &#45;o hellofunc.o hellofunc.c &#45;I.">
<ellipse fill="none" stroke="#ff0000" cx="256.9625" cy="-236.6273" rx="54.9985" ry="54.9985"/>
<text text-anchor="middle" x="256.9625" y="-232.4273" font-family="Times,serif" font-size="14.00" fill="#000000">hellofunc.o</text>
</a>
</g>
</g>
<!-- n5&#45;&gt;n6 -->
<g id="edge6" class="edge">
<title>n5&#45;&gt;n6</title>
<path fill="none" stroke="#000000" d="M214.8791,-335.6908C220.2614,-323.0208 226.0289,-309.4443 231.5147,-296.5308"/>
<polygon fill="#000000" stroke="#000000" points="234.7613,-297.8398 235.45,-287.2674 228.3186,-295.1028 234.7613,-297.8398"/>
</g>
<!-- n5&#45;&gt;n3 -->
<g id="edge4" class="edge">
<title>n5&#45;&gt;n3</title>
<path fill="none" stroke="#000000" d="M168.6934,-335.6908C163.715,-324.1494 158.4122,-311.8558 153.2966,-299.9963"/>
<polygon fill="#000000" stroke="#000000" points="156.4185,-298.3969 149.244,-290.601 149.991,-301.1695 156.4185,-298.3969"/>
</g>
<!-- n2 -->
<g id="node7" class="node">
<title>n2</title>
<g id="a_node7"><a xlink:title="gcc &#45;o hellomake hellomake.o hellofunc.o &#45;I.">
<ellipse fill="none" stroke="#ff0000" cx="190.9625" cy="-90.8615" rx="51.0242" ry="51.0242"/>
<text text-anchor="middle" x="190.9625" y="-86.6615" font-family="Times,serif" font-size="14.00" fill="#000000">hellomake</text>
</a>
</g>
</g>
<!-- n6&#45;&gt;n2 -->
<g id="edge2" class="edge">
<title>n6&#45;&gt;n2</title>
<path fill="none" stroke="#000000" d="M234.249,-186.463C228.4881,-173.7395 222.2623,-159.9895 216.3769,-146.9912"/>
<polygon fill="#000000" stroke="#000000" points="219.4763,-145.3507 212.1631,-137.6846 213.0995,-148.238 219.4763,-145.3507"/>
</g>
<!-- n7 -->
<g id="node4" class="node">
<title>n7</title>
<ellipse fill="none" stroke="#00ff00" cx="322.9625" cy="-389.6359" rx="54.4146" ry="54.4146"/>
<text text-anchor="middle" x="322.9625" y="-385.4359" font-family="Times,serif" font-size="14.00" fill="#000000">hellofunc.c</text>
</g>
<!-- n7&#45;&gt;n6 -->
<g id="edge5" class="edge">
<title>n7&#45;&gt;n6</title>
<path fill="none" stroke="#000000" d="M301.3516,-339.5351C295.3997,-325.7366 288.8843,-310.6319 282.723,-296.3483"/>
<polygon fill="#000000" stroke="#000000" points="285.9094,-294.8983 278.7348,-287.1024 279.4818,-297.6708 285.9094,-294.8983"/>
</g>
<!-- n0 -->
<g id="node5" class="node">
<title>n0</title>
<ellipse fill="#000000" stroke="#000000" cx="247.9625" cy="-1.8" rx="1.8" ry="1.8"/>
</g>
<!-- n1 -->
<g id="node6" class="node">
<title>n1</title>
<ellipse fill="none" stroke="#00ff00" cx="305.9625" cy="-90.8615" rx="45.7829" ry="45.7829"/>
<text text-anchor="middle" x="305.9625" y="-86.6615" font-family="Times,serif" font-size="14.00" fill="#000000">Makefile</text>
</g>
<!-- n1&#45;&gt;n0 -->
<g id="edge7" class="edge">
<title>n1&#45;&gt;n0</title>
<path fill="none" stroke="#000000" d="M280.8602,-52.3158C271.2507,-37.5601 261.0597,-21.9114 254.6116,-12.01"/>
<polygon fill="#000000" stroke="#000000" points="257.5424,-10.0967 249.1523,-3.627 251.6766,-13.9168 257.5424,-10.0967"/>
</g>
<!-- n2&#45;&gt;n0 -->
<g id="edge8" class="edge">
<title>n2&#45;&gt;n0</title>
<path fill="none" stroke="#000000" d="M218.6276,-47.6352C227.1477,-34.3227 235.7674,-20.8547 241.4373,-11.9955"/>
<polygon fill="#000000" stroke="#000000" points="244.4926,-13.7145 246.9352,-3.4051 238.5967,-9.9411 244.4926,-13.7145"/>
</g>
<!-- n3&#45;&gt;n2 -->
<g id="edge1" class="edge">
<title>n3&#45;&gt;n2</title>
<path fill="none" stroke="#000000" d="M149.797,-183.1772C155.0003,-171.5086 160.5233,-159.123 165.7773,-147.3406"/>
<polygon fill="#000000" stroke="#000000" points="169.0459,-148.6045 169.922,-138.046 162.6527,-145.7536 169.0459,-148.6045"/>
</g>
</g>
</svg>
