<?xml version="1.0" encoding="UTF-8" standalone="no"?>
<!DOCTYPE svg PUBLIC "-//W3C//DTD SVG 1.1//EN"
 "http://www.w3.org/Graphics/SVG/1.1/DTD/svg11.dtd">
<!-- Generated by graphviz version 2.40.1 (20161225.0304)
 -->
<!-- Pages: 1 -->
<svg width="385pt" height="456pt"
 viewBox="0.00 0.00 385.17 456.14" xmlns="http://www.w3.org/2000/svg" xmlns:xlink="http://www.w3.org/1999/xlink">
<g id="graph0" class="graph" transform="scale(1 1) rotate(0) translate(4 452.1401)">
<polygon fill="#ffffff" stroke="transparent" points="-4,4 -4,-452.1401 381.1694,-452.1401 381.1694,4 -4,4"/>
<!-- n5 -->
<g id="node1" class="node">
<title>n5</title>
<ellipse fill="none" stroke="#00ff00" cx="185.2069" cy="-389.6359" rx="58.5085" ry="58.5085"/>
<text text-anchor="middle" x="185.2069" y="-385.4359" font-family="Times,serif" font-size="14.00" fill="#000000">hellomake.h</text>
</g>
<!-- n6 -->
<g id="node2" class="node">
<title>n6</title>
<g id="a_node2"><a xlink:title="gcc &#45;c &#45;o hellofunc.o hellofunc.c &#45;I.">
<ellipse fill="none" stroke="#ff0000" cx="119.2069" cy="-236.6273" rx="54.9985" ry="54.9985"/>
<text text-anchor="middle" x="119.2069" y="-232.4273" font-family="Times,serif" font-size="14.00" fill="#000000">hellofunc.o</text>
</a>
</g>
</g>
<!-- n5&#45;&gt;n6 -->
<g id="edge8" class="edge">
<title>n5&#45;&gt;n6</title>
<path fill="none" stroke="#000000" d="M161.9378,-335.6908C156.4428,-322.9516 150.5524,-309.2959 144.9549,-296.3192"/>
<polygon fill="#000000" stroke="#000000" points="148.1152,-294.8088 140.9406,-287.0129 141.6877,-297.5813 148.1152,-294.8088"/>
</g>
<!-- n3 -->
<g id="node7" class="node">
<title>n3</title>
<g id="a_node7"><a xlink:title="gcc &#45;c &#45;o hellomake.o hellomake.c &#45;I.">
<ellipse fill="none" stroke="#ff0000" cx="250.2069" cy="-236.6273" rx="58.5085" ry="58.5085"/>
<text text-anchor="middle" x="250.2069" y="-232.4273" font-family="Times,serif" font-size="14.00" fill="#000000">hellomake.o</text>
</a>
</g>
</g>
<!-- n5&#45;&gt;n3 -->
<g id="edge6" class="edge">
<title>n5&#45;&gt;n3</title>
<path fill="none" stroke="#000000" d="M208.1235,-335.6908C213.0264,-324.1494 218.2489,-311.8558 223.2869,-299.9963"/>
<polygon fill="#000000" stroke="#000000" points="226.5896,-301.1734 227.2782,-290.601 220.1468,-298.4364 226.5896,-301.1734"/>
</g>
<!-- n2 -->
<g id="node6" class="node">
<title>n2</title>
<g id="a_node6"><a xlink:title="gcc &#45;o hellomake hellomake.o hellofunc.o &#45;I.">
<ellipse fill="none" stroke="#ff0000" cx="184.2069" cy="-90.8615" rx="51.0242" ry="51.0242"/>
<text text-anchor="middle" x="184.2069" y="-86.6615" font-family="Times,serif" font-size="14.00" fill="#000000">hellomake</text>
</a>
</g>
</g>
<!-- n6&#45;&gt;n2 -->
<g id="edge4" class="edge">
<title>n6&#45;&gt;n2</title>
<path fill="none" stroke="#000000" d="M141.5762,-186.463C147.2499,-173.7395 153.3813,-159.9895 159.1775,-146.9912"/>
<polygon fill="#000000" stroke="#000000" points="162.4514,-148.2432 163.3275,-137.6846 156.0582,-145.3923 162.4514,-148.2432"/>
</g>
<!-- n7 -->
<g id="node3" class="node">
<title>n7</title>
<ellipse fill="none" stroke="#00ff00" cx="54.2069" cy="-389.6359" rx="54.4146" ry="54.4146"/>
<text text-anchor="middle" x="54.2069" y="-385.4359" font-family="Times,serif" font-size="14.00" fill="#000000">hellofunc.c</text>
</g>
<!-- n7&#45;&gt;n6 -->
<g id="edge7" class="edge">
<title>n7&#45;&gt;n6</title>
<path fill="none" stroke="#000000" d="M75.4903,-339.5351C81.3521,-325.7366 87.7688,-310.6319 93.8367,-296.3483"/>
<polygon fill="#000000" stroke="#000000" points="97.0758,-297.6748 97.7645,-287.1024 90.6331,-294.9378 97.0758,-297.6748"/>
</g>
<!-- n0 -->
<g id="node4" class="node">
<title>n0</title>
<ellipse fill="#000000" stroke="#000000" cx="241.2069" cy="-1.8" rx="1.8" ry="1.8"/>
</g>
<!-- n1 -->
<g id="node5" class="node">
<title>n1</title>
<ellipse fill="none" stroke="#00ff00" cx="299.2069" cy="-90.8615" rx="45.7829" ry="45.7829"/>
<text text-anchor="middle" x="299.2069" y="-86.6615" font-family="Times,serif" font-size="14.00" fill="#000000">Makefile</text>
</g>
<!-- n1&#45;&gt;n0 -->
<g id="edge1" class="edge">
<title>n1&#45;&gt;n0</title>
<path fill="none" stroke="#000000" d="M274.1046,-52.3158C264.4951,-37.5601 254.3042,-21.9114 247.856,-12.01"/>
<polygon fill="#000000" stroke="#000000" points="250.7868,-10.0967 242.3967,-3.627 244.921,-13.9168 250.7868,-10.0967"/>
</g>
<!-- n2&#45;&gt;n0 -->
<g id="edge2" class="edge">
<title>n2&#45;&gt;n0</title>
<path fill="none" stroke="#000000" d="M211.8721,-47.6352C220.3921,-34.3227 229.0118,-20.8547 234.6817,-11.9955"/>
<polygon fill="#000000" stroke="#000000" points="237.737,-13.7145 240.1797,-3.4051 231.8411,-9.9411 237.737,-13.7145"/>
</g>
<!-- n3&#45;&gt;n2 -->
<g id="edge3" class="edge">
<title>n3&#45;&gt;n2</title>
<path fill="none" stroke="#000000" d="M226.0057,-183.1772C220.6643,-171.3803 214.9911,-158.8507 209.6038,-146.9524"/>
<polygon fill="#000000" stroke="#000000" points="212.6695,-145.2377 205.3564,-137.5717 206.2927,-148.1251 212.6695,-145.2377"/>
</g>
<!-- n4 -->
<g id="node8" class="node">
<title>n4</title>
<ellipse fill="none" stroke="#00ff00" cx="319.2069" cy="-389.6359" rx="57.925" ry="57.925"/>
<text text-anchor="middle" x="319.2069" y="-385.4359" font-family="Times,serif" font-size="14.00" fill="#000000">hellomake.c</text>
</g>
<!-- n4&#45;&gt;n3 -->
<g id="edge5" class="edge">
<title>n4&#45;&gt;n3</title>
<path fill="none" stroke="#000000" d="M295.2677,-336.5503C289.8707,-324.5824 284.0921,-311.7683 278.5344,-299.4441"/>
<polygon fill="#000000" stroke="#000000" points="281.639,-297.8144 274.3375,-290.1373 275.2579,-300.6921 281.639,-297.8144"/>
</g>
</g>
</svg>
