<?xml version="1.0" encoding="UTF-8" standalone="no"?>
<!DOCTYPE svg PUBLIC "-//W3C//DTD SVG 1.1//EN"
 "http://www.w3.org/Graphics/SVG/1.1/DTD/svg11.dtd">
<!-- Generated by graphviz version 2.40.1 (20161225.0304)
 -->
<!-- Pages: 1 -->
<svg width="324pt" height="400pt"
 viewBox="0.00 0.00 324.37 400.34" xmlns="http://www.w3.org/2000/svg" xmlns:xlink="http://www.w3.org/1999/xlink">
<g id="graph0" class="graph" transform="scale(1 1) rotate(0) translate(4 396.3382)">
<polygon fill="#ffffff" stroke="transparent" points="-4,4 -4,-396.3382 320.3691,-396.3382 320.3691,4 -4,4"/>
<!-- n1 -->
<g id="node1" class="node">
<title>n1</title>
<ellipse fill="none" stroke="#00ff00" cx="85.3129" cy="-124.9129" rx="85.1262" ry="85.1262"/>
<text text-anchor="middle" x="85.3129" y="-120.7129" font-family="Times,serif" font-size="14.00" fill="#000000">testdata/Makefile.1</text>
</g>
<!-- n0 -->
<g id="node6" class="node">
<title>n0</title>
<ellipse fill="#000000" stroke="#000000" cx="145.3129" cy="-1.8" rx="1.8" ry="1.8"/>
</g>
<!-- n1&#45;&gt;n0 -->
<g id="edge1" class="edge">
<title>n1&#45;&gt;n0</title>
<path fill="none" stroke="#000000" d="M122.8004,-47.993C129.5486,-34.1465 135.7568,-21.408 139.9368,-12.8311"/>
<polygon fill="#000000" stroke="#000000" points="143.2017,-14.1209 144.4365,-3.5983 136.9092,-11.0542 143.2017,-14.1209"/>
</g>
<!-- n2 -->
<g id="node2" class="node">
<title>n2</title>
<g id="a_node2"><a xlink:title="echo a">
<ellipse fill="none" stroke="#ff0000" cx="206.3129" cy="-124.9129" rx="18" ry="18"/>
<text text-anchor="middle" x="206.3129" y="-120.7129" font-family="Times,serif" font-size="14.00" fill="#000000">a</text>
</a>
</g>
</g>
<!-- n2&#45;&gt;n0 -->
<g id="edge2" class="edge">
<title>n2&#45;&gt;n0</title>
<path fill="none" stroke="#000000" d="M202.976,-107.0221C199.115,-89.1081 191.6532,-61.1769 179.3129,-39.6 172.7316,-28.0926 162.1702,-17.0772 154.5639,-9.9372"/>
<polygon fill="#000000" stroke="#000000" points="156.6461,-7.1048 146.8505,-3.068 151.9907,-12.3324 156.6461,-7.1048"/>
</g>
<!-- n3 -->
<g id="node3" class="node">
<title>n3</title>
<g id="a_node3"><a xlink:title="echo b">
<ellipse fill="none" stroke="#ff0000" cx="206.3129" cy="-283.282" rx="18" ry="18"/>
<text text-anchor="middle" x="206.3129" y="-279.082" font-family="Times,serif" font-size="14.00" fill="#000000">b</text>
</a>
</g>
</g>
<!-- n3&#45;&gt;n2 -->
<g id="edge3" class="edge">
<title>n3&#45;&gt;n2</title>
<path fill="none" stroke="#000000" d="M206.3129,-265.115C206.3129,-237.8148 206.3129,-185.9621 206.3129,-153.542"/>
<polygon fill="#000000" stroke="#000000" points="209.813,-153.3558 206.3129,-143.3558 202.813,-153.3558 209.813,-153.3558"/>
</g>
<!-- n4 -->
<g id="node4" class="node">
<title>n4</title>
<g id="a_node4"><a xlink:title="echo c&#10;echo multi&#10;echo line">
<ellipse fill="none" stroke="#ff0000" cx="183.3129" cy="-374.3382" rx="18" ry="18"/>
<text text-anchor="middle" x="183.3129" y="-370.1382" font-family="Times,serif" font-size="14.00" fill="#000000">c</text>
</a>
</g>
</g>
<!-- n4&#45;&gt;n2 -->
<g id="edge4" class="edge">
<title>n4&#45;&gt;n2</title>
<path fill="none" stroke="#000000" d="M181.6465,-356.3566C180.7576,-345.8628 179.7576,-332.3628 179.3129,-320.3382 178.0954,-287.4218 175.7134,-278.9674 179.3129,-246.2258 182.9234,-213.3845 191.8747,-176.4279 198.4859,-152.029"/>
<polygon fill="#000000" stroke="#000000" points="201.8594,-152.9611 201.1536,-142.3898 195.113,-151.0939 201.8594,-152.9611"/>
</g>
<!-- n4&#45;&gt;n3 -->
<g id="edge6" class="edge">
<title>n4&#45;&gt;n3</title>
<path fill="none" stroke="#000000" d="M187.7475,-356.7816C191.0567,-343.6809 195.6401,-325.5352 199.4248,-310.5517"/>
<polygon fill="#000000" stroke="#000000" points="202.8362,-311.3373 201.8919,-300.7846 196.0494,-309.6229 202.8362,-311.3373"/>
</g>
<!-- n5 -->
<g id="node5" class="node">
<title>n5</title>
<g id="a_node5"><a xlink:title="# Testing comments&#10;echo &quot;hello&quot; &gt;test.txt ">
<ellipse fill="none" stroke="#ff0000" cx="279.3129" cy="-283.282" rx="37.1124" ry="37.1124"/>
<text text-anchor="middle" x="279.3129" y="-279.082" font-family="Times,serif" font-size="14.00" fill="#000000">test.txt</text>
</a>
</g>
</g>
<!-- n5&#45;&gt;n2 -->
<g id="edge5" class="edge">
<title>n5&#45;&gt;n2</title>
<path fill="none" stroke="#000000" d="M263.6526,-249.3078C249.9964,-219.6816 230.4872,-177.3575 218.113,-150.5125"/>
<polygon fill="#000000" stroke="#000000" points="221.2657,-148.9912 213.9009,-141.3747 214.9086,-151.9215 221.2657,-148.9912"/>
</g>
</g>
</svg>
