<?xml version="1.0" encoding="UTF-8" standalone="no"?>
<!DOCTYPE svg PUBLIC "-//W3C//DTD SVG 1.1//EN"
 "http://www.w3.org/Graphics/SVG/1.1/DTD/svg11.dtd">
<!-- Generated by graphviz version 2.40.1 (20161225.0304)
 -->
<!-- Pages: 1 -->
<svg width="985pt" height="561pt"
 viewBox="0.00 0.00 985.36 560.86" xmlns="http://www.w3.org/2000/svg" xmlns:xlink="http://www.w3.org/1999/xlink">
<g id="graph0" class="graph" transform="scale(1 1) rotate(0) translate(4 556.8581)">
<polygon fill="#ffffff" stroke="transparent" points="-4,4 -4,-556.8581 981.3581,-556.8581 981.3581,4 -4,4"/>
<!-- n3 -->
<g id="node1" class="node">
<title>n3</title>
<g id="a_node1"><a xlink:title="make &#45;C testdata/basic &#45;Bnd | ./makesense &#45;&#45;type gv &gt; assets/basic.svg">
<ellipse fill="none" stroke="#ff0000" cx="71.912" cy="-240.3675" rx="71.824" ry="71.824"/>
<text text-anchor="middle" x="71.912" y="-236.1675" font-family="Times,serif" font-size="14.00" fill="#000000">assets/basic.svg</text>
</a>
</g>
</g>
<!-- n2 -->
<g id="node7" class="node">
<title>n2</title>
<ellipse fill="none" stroke="#ff0000" cx="576.912" cy="-85.4913" rx="20.8829" ry="20.8829"/>
<text text-anchor="middle" x="576.912" y="-81.2913" font-family="Times,serif" font-size="14.00" fill="#000000">all</text>
</g>
<!-- n3&#45;&gt;n2 -->
<g id="edge3" class="edge">
<title>n3&#45;&gt;n2</title>
<path fill="none" stroke="#000000" d="M121.0723,-187.3416C130.8685,-179.4441 141.6389,-172.3125 152.912,-167.3826 314.0205,-96.9274 396.2245,-222.0094 546.912,-131.3826 553.9091,-127.1744 559.5855,-120.6336 564.0405,-113.7961"/>
<polygon fill="#000000" stroke="#000000" points="567.0745,-115.541 569.0378,-105.1297 561.0104,-112.0442 567.0745,-115.541"/>
</g>
<!-- n9 -->
<g id="node2" class="node">
<title>n9</title>
<g id="a_node2"><a xlink:title="make &#45;C testdata/c &#45;Bnd | ./makesense &#45;&#45;type dot | dot &#45;Tpng &#45;o assets/c.png">
<ellipse fill="none" stroke="#ff0000" cx="218.912" cy="-240.3675" rx="57.3609" ry="57.3609"/>
<text text-anchor="middle" x="218.912" y="-236.1675" font-family="Times,serif" font-size="14.00" fill="#000000">assets/c.png</text>
</a>
</g>
</g>
<!-- n9&#45;&gt;n2 -->
<g id="edge6" class="edge">
<title>n9&#45;&gt;n2</title>
<path fill="none" stroke="#000000" d="M252.7327,-193.7434C262.3317,-183.5292 273.5708,-173.8484 285.912,-167.3826 389.6368,-113.0397 447.9769,-194.0234 546.912,-131.3826 553.6573,-127.1118 559.203,-120.7133 563.611,-114.0398"/>
<polygon fill="#000000" stroke="#000000" points="566.9027,-115.3436 568.9226,-104.9431 560.8577,-111.8139 566.9027,-115.3436"/>
</g>
<!-- n7 -->
<g id="node3" class="node">
<title>n7</title>
<g id="a_node3"><a xlink:title="make &#45;C testdata/c &#45;Bnd | ./makesense &#45;&#45;type gv &gt; assets/c.svg">
<ellipse fill="none" stroke="#ff0000" cx="350.912" cy="-240.3675" rx="56.2154" ry="56.2154"/>
<text text-anchor="middle" x="350.912" y="-236.1675" font-family="Times,serif" font-size="14.00" fill="#000000">assets/c.svg</text>
</a>
</g>
</g>
<!-- n7&#45;&gt;n2 -->
<g id="edge4" class="edge">
<title>n7&#45;&gt;n2</title>
<path fill="none" stroke="#000000" d="M384.1396,-194.8432C393.4416,-184.6019 404.2362,-174.6329 415.912,-167.3826 467.2074,-135.5298 498.1227,-166.9556 546.912,-131.3826 553.2573,-126.7562 558.6285,-120.3456 562.9944,-113.7812"/>
<polygon fill="#000000" stroke="#000000" points="566.1856,-115.2649 568.322,-104.8877 560.1806,-111.6676 566.1856,-115.2649"/>
</g>
<!-- n8 -->
<g id="node4" class="node">
<title>n8</title>
<g id="a_node4"><a xlink:title="make &#45;C testdata/basic &#45;Bnd | ./makesense &#45;&#45;type dot | dot &#45;Tpng &#45;o assets/basic.png">
<ellipse fill="none" stroke="#ff0000" cx="497.912" cy="-240.3675" rx="72.9697" ry="72.9697"/>
<text text-anchor="middle" x="497.912" y="-236.1675" font-family="Times,serif" font-size="14.00" fill="#000000">assets/basic.png</text>
</a>
</g>
</g>
<!-- n8&#45;&gt;n2 -->
<g id="edge5" class="edge">
<title>n8&#45;&gt;n2</title>
<path fill="none" stroke="#000000" d="M531.1861,-175.1349C542.2869,-153.3723 554.0606,-130.2904 562.8807,-112.999"/>
<polygon fill="#000000" stroke="#000000" points="566.0277,-114.532 567.4538,-104.0336 559.7921,-111.3513 566.0277,-114.532"/>
</g>
<!-- n0 -->
<g id="node5" class="node">
<title>n0</title>
<ellipse fill="#000000" stroke="#000000" cx="533.912" cy="-1.8" rx="1.8" ry="1.8"/>
</g>
<!-- n1 -->
<g id="node6" class="node">
<title>n1</title>
<ellipse fill="none" stroke="#00ff00" cx="491.912" cy="-85.4913" rx="45.7829" ry="45.7829"/>
<text text-anchor="middle" x="491.912" y="-81.2913" font-family="Times,serif" font-size="14.00" fill="#000000">Makefile</text>
</g>
<!-- n1&#45;&gt;n0 -->
<g id="edge1" class="edge">
<title>n1&#45;&gt;n0</title>
<path fill="none" stroke="#000000" d="M512.6659,-44.136C518.4849,-32.5408 524.329,-20.8954 528.4109,-12.7616"/>
<polygon fill="#000000" stroke="#000000" points="531.6642,-14.0821 533.0214,-3.5746 525.4078,-10.9424 531.6642,-14.0821"/>
</g>
<!-- n2&#45;&gt;n0 -->
<g id="edge2" class="edge">
<title>n2&#45;&gt;n0</title>
<path fill="none" stroke="#000000" d="M567.3689,-66.9175C558.7956,-50.2313 546.5031,-26.3062 539.4519,-12.5825"/>
<polygon fill="#000000" stroke="#000000" points="542.5132,-10.8819 534.83,-3.5867 536.2869,-14.0809 542.5132,-10.8819"/>
</g>
<!-- n4 -->
<g id="node8" class="node">
<title>n4</title>
<g id="a_node8"><a xlink:title="mkdir &#45;p assets">
<ellipse fill="none" stroke="#ff0000" cx="497.912" cy="-402.216" rx="33.6208" ry="33.6208"/>
<text text-anchor="middle" x="497.912" y="-398.016" font-family="Times,serif" font-size="14.00" fill="#000000">assets</text>
</a>
</g>
</g>
<!-- n4&#45;&gt;n3 -->
<g id="edge21" class="edge">
<title>n4&#45;&gt;n3</title>
<path fill="none" stroke="#000000" d="M481.1285,-373.057C474.4501,-364.007 465.9439,-354.9485 455.912,-349.3523 337.4789,-283.2862 276.4152,-369.3707 152.912,-313.3523 144.6832,-309.6199 136.7069,-304.7419 129.1751,-299.2752"/>
<polygon fill="#000000" stroke="#000000" points="131.2484,-296.4544 121.1857,-293.1386 126.9843,-302.0058 131.2484,-296.4544"/>
</g>
<!-- n4&#45;&gt;n9 -->
<g id="edge23" class="edge">
<title>n4&#45;&gt;n9</title>
<path fill="none" stroke="#000000" d="M480.622,-373.2927C473.9527,-364.373 465.5811,-355.3345 455.912,-349.3523 390.2346,-308.7182 352.9958,-351.6199 285.912,-313.3523 276.9476,-308.2387 268.5049,-301.5129 260.8318,-294.2115"/>
<polygon fill="#000000" stroke="#000000" points="262.9556,-291.3833 253.4243,-286.7567 257.9901,-296.3173 262.9556,-291.3833"/>
</g>
<!-- n4&#45;&gt;n7 -->
<g id="edge13" class="edge">
<title>n4&#45;&gt;n7</title>
<path fill="none" stroke="#000000" d="M477.8096,-375.1435C471.1279,-366.6387 463.4602,-357.3791 455.912,-349.3523 439.5271,-331.9286 432.78,-330.3087 415.912,-313.3523 408.8218,-306.225 401.5317,-298.4873 394.5141,-290.8036"/>
<polygon fill="#000000" stroke="#000000" points="396.9079,-288.2323 387.6048,-283.1624 391.7157,-292.9272 396.9079,-288.2323"/>
</g>
<!-- n4&#45;&gt;n8 -->
<g id="edge15" class="edge">
<title>n4&#45;&gt;n8</title>
<path fill="none" stroke="#000000" d="M497.912,-368.2872C497.912,-355.2087 497.912,-339.6241 497.912,-323.9077"/>
<polygon fill="#000000" stroke="#000000" points="501.4121,-323.5858 497.912,-313.5858 494.4121,-323.5858 501.4121,-323.5858"/>
</g>
<!-- n10 -->
<g id="node11" class="node">
<title>n10</title>
<g id="a_node11"><a xlink:title="make &#45;Bnd | ./makesense &#45;&#45;type dot | dot &#45;Tpng &#45;o assets/this.png">
<ellipse fill="none" stroke="#ff0000" cx="655.912" cy="-240.3675" rx="67.1903" ry="67.1903"/>
<text text-anchor="middle" x="655.912" y="-236.1675" font-family="Times,serif" font-size="14.00" fill="#000000">assets/this.png</text>
</a>
</g>
</g>
<!-- n4&#45;&gt;n10 -->
<g id="edge17" class="edge">
<title>n4&#45;&gt;n10</title>
<path fill="none" stroke="#000000" d="M521.5662,-377.9856C542.666,-356.3719 574.3512,-323.9149 601.652,-295.9491"/>
<polygon fill="#000000" stroke="#000000" points="604.3742,-298.171 608.8552,-288.5704 599.3652,-293.2811 604.3742,-298.171"/>
</g>
<!-- n11 -->
<g id="node12" class="node">
<title>n11</title>
<g id="a_node12"><a xlink:title="make &#45;Bnd | ./makesense &#45;&#45;type gv &gt; assets/this.svg">
<ellipse fill="none" stroke="#ff0000" cx="806.912" cy="-240.3675" rx="66.0444" ry="66.0444"/>
<text text-anchor="middle" x="806.912" y="-236.1675" font-family="Times,serif" font-size="14.00" fill="#000000">assets/this.svg</text>
</a>
</g>
</g>
<!-- n4&#45;&gt;n11 -->
<g id="edge19" class="edge">
<title>n4&#45;&gt;n11</title>
<path fill="none" stroke="#000000" d="M530.8825,-394.2794C578.0461,-381.9453 666.3133,-355.155 731.912,-313.3523 739.6759,-308.4048 747.3047,-302.5564 754.5477,-296.3575"/>
<polygon fill="#000000" stroke="#000000" points="757.0929,-298.7781 762.2439,-289.5197 752.4435,-293.5451 757.0929,-298.7781"/>
</g>
<!-- n5 -->
<g id="node9" class="node">
<title>n5</title>
<ellipse fill="none" stroke="#ff0000" cx="497.912" cy="-521.9688" rx="30.7789" ry="30.7789"/>
<text text-anchor="middle" x="497.912" y="-517.7688" font-family="Times,serif" font-size="14.00" fill="#000000">build</text>
</g>
<!-- n5&#45;&gt;n2 -->
<g id="edge9" class="edge">
<title>n5&#45;&gt;n2</title>
<path fill="none" stroke="#000000" d="M528.3722,-516.2864C604.4771,-500.2589 802.5024,-446.8648 881.912,-313.3523 915.0755,-257.5939 921.3925,-218.8618 881.912,-167.3826 848.2716,-123.5185 678.389,-97.9472 607.7695,-89.0662"/>
<polygon fill="#000000" stroke="#000000" points="608.0627,-85.576 597.7104,-87.8303 607.2089,-92.5238 608.0627,-85.576"/>
</g>
<!-- n5&#45;&gt;n4 -->
<g id="edge11" class="edge">
<title>n5&#45;&gt;n4</title>
<path fill="none" stroke="#000000" d="M497.912,-490.8178C497.912,-477.3225 497.912,-461.2757 497.912,-446.5706"/>
<polygon fill="#000000" stroke="#000000" points="501.4121,-446.1557 497.912,-436.1558 494.4121,-446.1558 501.4121,-446.1557"/>
</g>
<!-- n6 -->
<g id="node10" class="node">
<title>n6</title>
<g id="a_node10"><a xlink:title="go build ./...">
<ellipse fill="none" stroke="#ff0000" cx="393.912" cy="-402.216" rx="52.7276" ry="52.7276"/>
<text text-anchor="middle" x="393.912" y="-398.016" font-family="Times,serif" font-size="14.00" fill="#000000">makesense</text>
</a>
</g>
</g>
<!-- n5&#45;&gt;n6 -->
<g id="edge12" class="edge">
<title>n5&#45;&gt;n6</title>
<path fill="none" stroke="#000000" d="M477.6128,-498.595C465.6175,-484.7827 449.9828,-466.7798 435.4777,-450.0777"/>
<polygon fill="#000000" stroke="#000000" points="438.1095,-447.7702 428.9098,-442.515 432.8243,-452.3602 438.1095,-447.7702"/>
</g>
<!-- n6&#45;&gt;n3 -->
<g id="edge22" class="edge">
<title>n6&#45;&gt;n3</title>
<path fill="none" stroke="#000000" d="M342.4728,-389.3982C291.874,-375.411 213.6057,-350.009 152.912,-313.3523 145.4585,-308.8507 138.0684,-303.6104 130.9594,-298.0422"/>
<polygon fill="#000000" stroke="#000000" points="132.7252,-294.9673 122.7563,-291.3795 128.312,-300.4009 132.7252,-294.9673"/>
</g>
<!-- n6&#45;&gt;n9 -->
<g id="edge24" class="edge">
<title>n6&#45;&gt;n9</title>
<path fill="none" stroke="#000000" d="M351.9901,-369.9718C331.4926,-353.6488 306.8013,-333.1396 285.912,-313.3523 278.6068,-306.4325 271.1416,-298.8641 263.971,-291.3048"/>
<polygon fill="#000000" stroke="#000000" points="266.3063,-288.6782 256.9154,-283.7729 261.1976,-293.4638 266.3063,-288.6782"/>
</g>
<!-- n6&#45;&gt;n7 -->
<g id="edge14" class="edge">
<title>n6&#45;&gt;n7</title>
<path fill="none" stroke="#000000" d="M380.3065,-351.0061C376.411,-336.344 372.1141,-320.1706 368.0364,-304.8225"/>
<polygon fill="#000000" stroke="#000000" points="371.3453,-303.646 365.3949,-294.88 364.58,-305.4434 371.3453,-303.646"/>
</g>
<!-- n6&#45;&gt;n8 -->
<g id="edge16" class="edge">
<title>n6&#45;&gt;n8</title>
<path fill="none" stroke="#000000" d="M422.6057,-357.5617C431.9399,-343.0355 442.5374,-326.5433 452.7738,-310.613"/>
<polygon fill="#000000" stroke="#000000" points="455.9518,-312.1417 458.4133,-301.8367 450.0628,-308.3575 455.9518,-312.1417"/>
</g>
<!-- n6&#45;&gt;n10 -->
<g id="edge18" class="edge">
<title>n6&#45;&gt;n10</title>
<path fill="none" stroke="#000000" d="M431.7417,-365.1017C439.0331,-359.2438 446.9061,-353.6973 454.912,-349.3523 505.7246,-321.7753 529.8204,-342.2185 579.912,-313.3523 587.827,-308.7911 595.546,-303.2322 602.8443,-297.2384"/>
<polygon fill="#000000" stroke="#000000" points="605.2804,-299.76 610.588,-290.5904 600.7207,-294.4487 605.2804,-299.76"/>
</g>
<!-- n6&#45;&gt;n11 -->
<g id="edge20" class="edge">
<title>n6&#45;&gt;n11</title>
<path fill="none" stroke="#000000" d="M430.8934,-364.337C438.3308,-358.4849 446.473,-353.1377 454.912,-349.3523 568.185,-298.5432 620.1522,-367.4088 731.912,-313.3523 740.44,-309.2275 748.6053,-303.7552 756.202,-297.6555"/>
<polygon fill="#000000" stroke="#000000" points="758.8744,-299.9765 764.2123,-290.8246 754.3322,-294.6502 758.8744,-299.9765"/>
</g>
<!-- n10&#45;&gt;n2 -->
<g id="edge7" class="edge">
<title>n10&#45;&gt;n2</title>
<path fill="none" stroke="#000000" d="M625.3685,-180.4883C613.5368,-157.2927 600.5733,-131.8784 591.0343,-113.1776"/>
<polygon fill="#000000" stroke="#000000" points="594.0441,-111.3753 586.3823,-104.0576 587.8084,-114.556 594.0441,-111.3753"/>
</g>
<!-- n11&#45;&gt;n2 -->
<g id="edge8" class="edge">
<title>n11&#45;&gt;n2</title>
<path fill="none" stroke="#000000" d="M761.5483,-192.236C752.171,-183.4588 742.0496,-174.7574 731.912,-167.3826 690.8725,-137.5281 637.5333,-111.8213 605.3298,-97.5255"/>
<polygon fill="#000000" stroke="#000000" points="606.6155,-94.2677 596.0512,-93.4633 603.808,-100.6801 606.6155,-94.2677"/>
</g>
<!-- n12 -->
<g id="node13" class="node">
<title>n12</title>
<g id="a_node13"><a xlink:title="go test ./...">
<ellipse fill="none" stroke="#ff0000" cx="952.912" cy="-240.3675" rx="24.3924" ry="24.3924"/>
<text text-anchor="middle" x="952.912" y="-236.1675" font-family="Times,serif" font-size="14.00" fill="#000000">test</text>
</a>
</g>
</g>
<!-- n12&#45;&gt;n2 -->
<g id="edge10" class="edge">
<title>n12&#45;&gt;n2</title>
<path fill="none" stroke="#000000" d="M946.276,-216.586C940.548,-200.3835 930.6596,-179.7116 914.912,-167.3826 866.5405,-129.5123 681.5031,-100.1044 607.6325,-89.6339"/>
<polygon fill="#000000" stroke="#000000" points="607.9579,-86.1454 597.5697,-88.2277 606.989,-93.0781 607.9579,-86.1454"/>
</g>
</g>
</svg>
